<?xml version="1.0" encoding="UTF-8" standalone="no"?>
<svg xmlns:rdf="http://www.w3.org/1999/02/22-rdf-syntax-ns#" xmlns="http://www.w3.org/2000/svg" height="344" width="610" version="1.1" xmlns:cc="http://creativecommons.org/ns#" xmlns:dc="http://purl.org/dc/elements/1.1/">
 <g transform="translate(0 -708.36)">
  <rect height="318" width="610" y="708.36" x="0" fill="#54458e"/>
  <path d="m201 877.16h0.2c-0.1-0.1-0.2-0.1-0.2 0h-10.3-0.2 0.2 10.3z" fill="#fffaff"/>
  <path d="m420.2 877.16h0.2c-0.1-0.1-0.2-0.1-0.2 0h-10.3-0.2 0.2 10.3z" fill="#fffaff"/>
  <path d="m185.8 871.36c5.4 0 10-1.9 13.7-5.6s5.6-8.3 5.6-13.7-1.9-10-5.6-13.7-8.4-5.6-13.9-5.6c-3.4 0-6.6 0.9-9.6 2.6-2.9 1.7-5.3 4.1-7 7.1s-2.6 6.3-2.6 9.8c0 5.3 1.9 9.8 5.6 13.5 3.8 3.7 8.4 5.6 13.8 5.6zm-11.8-26.2c1.2-2.1 2.9-3.8 5-5s4.4-1.9 6.7-1.9c2.4 0 4.7 0.6 6.8 1.9 2.1 1.2 3.8 2.9 5 4.9s1.8 4.4 1.8 6.9c0 2.6-0.6 4.9-1.8 7s-2.8 3.7-4.9 4.9-4.4 1.8-6.9 1.8c-3.8 0-6.9-1.3-9.5-3.9-2.7-2.6-3.9-5.8-3.9-9.6-0.1-2.5 0.5-4.9 1.7-7z" fill="#fffaff"/>
  <path d="m257.4 871.16c2 0 3.8-0.3 5.5-0.9 1.6-0.6 3.1-1.5 4.4-2.7s2.4-2.7 3.4-4.6l0.5-1-0.2-0.1h-6c-0.6 0.8-1.1 1.5-1.6 1.9-0.8 0.7-1.7 1.2-2.8 1.6s-2.3 0.6-3.4 0.6c-2.4 0-4.4-0.8-6-2.5-1.4-1.5-2.2-3.2-2.5-5.4h23v-1.1c0-3.7-1.1-6.9-3.1-9.4-2.8-3.6-6.6-5.4-11.3-5.4-4.6 0-8.3 1.8-11 5.3-2.1 2.7-3.2 5.9-3.2 9.4 0 3.7 1.3 7.1 3.8 10 2.4 2.7 6 4.3 10.5 4.3zm-5.9-21.7c1.6-1.4 3.5-2.1 5.7-2.1 1.4 0 2.7 0.3 3.9 0.9s2.2 1.3 2.9 2.2c0.5 0.6 0.9 1.4 1.3 2.4h-16c0.6-1.4 1.4-2.6 2.2-3.4z" fill="#fffaff"/>
  <path d="m281.8 859.96c0-3.3 0.1-5.5 0.4-6.7 0.4-1.7 1.3-3.1 2.8-4.3 1.4-1.2 2.9-1.7 4.6-1.7 1.5 0 2.7 0.4 3.5 1 0.9 0.7 1.5 1.7 1.8 3.2 0.2 0.6 0.3 2.1 0.3 5.6v13.3h5.5v-14.3c0-3.7-0.4-6.3-1.1-8.1-0.8-1.8-2-3.3-3.7-4.4s-3.6-1.6-5.7-1.6-4 0.5-5.8 1.4c-1 0.5-1.9 1.2-2.7 2v-2.8h-5.5v27.8h5.5l0.1-10.4z" fill="#fffaff"/>
  <polygon transform="translate(.0000035073 708.36)" points="298.5 125.3 298.5 130.9 310.4 130.9 310.4 162.1 316.2 162.1 316.2 130.9 328.1 130.9 328.1 125.3" fill="#fffaff"/>
  <path d="m328.1 866.76c2.7 2.9 6.2 4.4 10.4 4.4s7.7-1.5 10.4-4.4 4-6.3 4-10.1-1.3-7.2-3.8-10c-2.8-3.1-6.4-4.6-10.6-4.6-4.3 0-7.9 1.6-10.7 4.7-2.5 2.8-3.8 6.2-3.8 10 0 3.7 1.4 7.1 4.1 10zm4.1-16.6c1.8-1.8 3.8-2.7 6.3-2.7 2.4 0 4.5 0.9 6.3 2.7s2.6 4 2.6 6.6c0 1.6-0.4 3.2-1.2 4.6s-1.9 2.5-3.2 3.3c-1.4 0.8-2.9 1.2-4.5 1.2s-3.1-0.4-4.5-1.2c-1.3-0.8-2.4-1.9-3.2-3.3s-1.2-3-1.2-4.6c0-2.7 0.9-4.8 2.6-6.6z" fill="#fffaff"/>
  <path d="m370.9 871.16c4.2 0 7.7-1.5 10.4-4.4s4-6.3 4-10.1-1.3-7.2-3.8-10c-2.8-3.1-6.4-4.6-10.6-4.6-4.3 0-7.9 1.6-10.6 4.7-2.5 2.8-3.8 6.2-3.8 10s1.4 7.3 4 10.1c2.7 2.8 6.2 4.3 10.4 4.3zm-6.3-21c1.8-1.8 3.8-2.7 6.3-2.7 2.4 0 4.5 0.9 6.3 2.7s2.6 4 2.6 6.6c0 1.6-0.4 3.2-1.2 4.6s-1.9 2.5-3.2 3.3c-1.4 0.8-2.9 1.2-4.5 1.2s-3.1-0.4-4.5-1.2c-1.3-0.8-2.4-1.9-3.2-3.3s-1.2-3-1.2-4.6c0-2.7 0.9-4.8 2.6-6.6z" fill="#fffaff"/>
  <path d="m394.7 859.96c0-3.3 0.1-5.5 0.4-6.7 0.4-1.7 1.3-3.1 2.8-4.3 1.4-1.2 2.9-1.7 4.6-1.7 1.5 0 2.7 0.4 3.5 1 0.9 0.7 1.5 1.7 1.8 3.2 0.2 0.6 0.3 2.1 0.3 5.6v13.3h5.5v-14.3c0-3.7-0.4-6.3-1.1-8.1-0.8-1.8-2-3.3-3.7-4.4s-3.6-1.6-5.7-1.6-4 0.5-5.8 1.4c-1 0.5-1.9 1.2-2.7 2v-2.8h-5.5v27.8h5.5l0.1-10.4z" fill="#fffaff"/>
  <polygon transform="translate(.0000035073 708.36)" points="419.3 139.4 431.5 139.4 417 162.1 439.9 162.1 439.9 157 426.8 157 441.3 134.3 419.3 134.3" fill="#fffaff"/>
  <path d="m212.9 894.06 2.6-10v-16.3c0.9 0.8 2 1.5 3 2 1.9 0.9 3.9 1.4 6.1 1.4 3.9 0 7.3-1.4 10.1-4.3 2.8-2.8 4.2-6.3 4.2-10.4 0-4-1.4-7.4-4.2-10.2s-6.2-4.3-10.1-4.3c-2.3 0-4.3 0.5-6.2 1.5-1 0.5-2 1.2-2.9 2.1v-2.9h-5.5v41.4l2.9 10zm5-44c1.7-1.8 3.8-2.6 6.4-2.6 1.6 0 3.1 0.4 4.5 1.2s2.5 1.9 3.3 3.4 1.2 3 1.2 4.6-0.4 3.2-1.2 4.6c-0.8 1.5-1.9 2.6-3.3 3.4s-2.8 1.2-4.4 1.2-3.1-0.4-4.6-1.2c-1.4-0.8-2.5-1.9-3.3-3.3s-1.2-3-1.2-4.7c0-2.7 0.8-4.8 2.6-6.6zm-3.3 34-1.1 4.3h-1.3l-1.2-4.3h3.6z" fill="#fffaff"/>
  <path d="m461.6 898.06-9.4-9.4c0.4-0.7 4-7.6 0.4-15.4-2 2.4-5.1 4.6-9.1 6.6l-2.9-2.9h-17.7c-0.3-1.1-1.8-2-3.5-2h-10.4c-1.8 0-3.2 0.9-3.5 2h-97c-0.3-1.5-2.2-2.6-4.4-2.7h-0.2c-2.3 0.1-4.1 1.2-4.4 2.7h-77.7v2.2h78.8v2.5h6.9v-2.5h99.3v1.8h15.1v-1.8h18l1.7 1.7c-27.4 12.6-86.9 17.2-88.4 17.4h-202.5l19.8-19.2h16.8v1.9h15.1v-2h1.2v-1.6c0-1.3-1.6-2.4-3.6-2.4h-10.3c-1.7 0-3.1 0.8-3.5 1.9h-16.8l-22.2 21.4v11.5h314.3l0.1-11.7zm-155.1-19.2v2h-5.2v-2.4c0-0.6 0.5-1.1 1.2-1.4 0.1 0 0.2-0.1 0.4-0.1 0.3-0.1 0.7-0.1 1-0.2 0.4 0 0.7 0.1 1 0.2 0.1 0 0.2 0.1 0.4 0.1 0.7 0.3 1.2 0.8 1.2 1.4v0.4zm114.5 0v1.4h-13.6v-2.2c0-0.5 0.7-0.9 1.5-1h0.2 10.3 0.2c0.8 0.1 1.5 0.5 1.5 1v0.8zm-232.9 0.2v-1c0-0.5 0.7-0.9 1.5-1h0.2 10.3 0.2c0.8 0.1 1.5 0.5 1.5 1v2.2h-13.6v-1.2zm207.9 16.2c21.1-3.5 36.9-7.8 47.1-12.6 0.7-0.3 1.4-0.7 2.1-1 2.6-1.4 4.8-2.8 6.5-4.2 0.9 4.4-0.4 8.2-1.1 9.6 0 0.1-0.1 0.2-0.1 0.3-0.7 0.2-1.4 0.4-2.1 0.7-12.9 3.8-36.5 6.4-57.2 8 1.6-0.3 3.2-0.6 4.8-0.8zm54.1-5.5 8.5 8.6h-68.6c21.8-1.7 47-4.5 60.1-8.6zm9.2 17.8h-309.8v-2.4h309.8v2.4zm0-4.6h-309.8v-2.4h309.8v2.4z" fill="#fffaff"/>
  <rect y="1026.4" width="610" x="0" height="26"/>
  <g transform="translate(.0000035073 708.36)" fill="#54458e">
   <path d="m26.4 326.5v0.2 0.1s0 0.1-0.1 0.1h-0.1-2.2v6.7 0.1l-0.1 0.1h-0.2-0.2-0.2-0.2c-0.1 0-0.1 0-0.1-0.1v-0.1-6.6h-2.2-0.1l-0.1-0.1v-0.1-0.2-0.2-0.1s0-0.1 0.1-0.1h0.1 5.4 0.1l0.1 0.1v0.1 0.1z"/>
   <path d="m32.1 333.6v0c0 0.1-0.1 0.1-0.1 0.1h-0.1-0.2-0.2-0.1s-0.1 0-0.1-0.1v-0.1-3.1c0-0.3 0-0.6-0.1-0.7 0-0.2-0.1-0.3-0.2-0.5-0.1-0.1-0.2-0.2-0.4-0.3s-0.3-0.1-0.5-0.1-0.5 0.1-0.7 0.3-0.5 0.4-0.8 0.8v3.7 0.1l-0.1 0.1c-0.1 0.1-0.1 0-0.1 0h-0.2-0.2-0.2c-0.1 0-0.1 0-0.1-0.1v-0.1-8-0.1l0.1-0.1h0.2 0.2 0.2 0.1s0.1 0 0.1 0.1v0.1 3.2c0.3-0.3 0.6-0.5 0.9-0.7 0.3-0.1 0.6-0.2 0.9-0.2 0.4 0 0.7 0.1 0.9 0.2s0.4 0.3 0.6 0.5 0.3 0.4 0.3 0.7c0.1 0.3 0.1 0.6 0.1 1v3.3z"/>
   <path d="m35 326.5c0 0.2 0 0.4-0.1 0.5s-0.2 0.1-0.5 0.1c-0.2 0-0.4 0-0.5-0.1s-0.1-0.2-0.1-0.5c0-0.2 0-0.4 0.1-0.5s0.2-0.1 0.5-0.1c0.2 0 0.4 0 0.5 0.1 0 0.1 0.1 0.2 0.1 0.5zm-0.2 7.1v0c0 0.1-0.1 0.1-0.1 0.1h-0.1-0.2-0.2-0.2c-0.1 0-0.1 0-0.1-0.1v-0.1-5.4-0.1l0.1-0.1c0.1-0.1 0.1 0 0.2 0h0.2 0.2 0.1s0.1 0 0.1 0.1v0.1 5.5z"/>
   <path d="m40 332.2c0 0.3-0.1 0.5-0.2 0.7s-0.2 0.4-0.4 0.5-0.4 0.3-0.7 0.3c-0.3 0.1-0.5 0.1-0.9 0.1h-0.5c-0.2 0-0.3-0.1-0.5-0.1-0.1 0-0.3-0.1-0.3-0.1-0.1 0-0.2-0.1-0.2-0.1s-0.1-0.1-0.1-0.2v-0.3-0.2-0.1s0-0.1 0.1-0.1h0.1s0.1 0 0.2 0.1 0.2 0.1 0.3 0.2 0.3 0.1 0.4 0.2c0.2 0.1 0.4 0.1 0.6 0.1s0.3 0 0.5-0.1c0.1 0 0.3-0.1 0.4-0.2s0.2-0.2 0.2-0.3c0.1-0.1 0.1-0.2 0.1-0.4s0-0.3-0.1-0.4l-0.3-0.3c-0.1-0.1-0.3-0.1-0.4-0.2-0.2-0.1-0.3-0.1-0.5-0.2s-0.3-0.1-0.5-0.2-0.3-0.2-0.4-0.3-0.2-0.3-0.3-0.4c-0.1-0.2-0.1-0.4-0.1-0.6s0-0.4 0.1-0.6 0.2-0.4 0.4-0.5 0.4-0.3 0.6-0.3c0.2-0.1 0.5-0.1 0.9-0.1h0.4c0.1 0 0.3 0.1 0.4 0.1s0.2 0.1 0.3 0.1 0.1 0.1 0.2 0.1l0.1 0.1v0.1 0.1 0.2 0.2 0.1s0 0.1-0.1 0.1h-0.1s-0.1 0-0.2-0.1c-0.1 0-0.2-0.1-0.3-0.1s-0.2-0.1-0.4-0.1c-0.1 0-0.3-0.1-0.5-0.1s-0.3 0-0.4 0.1c-0.1 0-0.2 0.1-0.3 0.2s-0.1 0.2-0.2 0.2c0 0.1-0.1 0.2-0.1 0.3 0 0.2 0 0.3 0.1 0.4l0.3 0.3c0.1 0.1 0.3 0.2 0.4 0.2 0.2 0.1 0.3 0.1 0.5 0.2s0.3 0.1 0.5 0.2 0.3 0.2 0.4 0.3 0.2 0.3 0.3 0.4c0.2 0.1 0.2 0.3 0.2 0.5z"/>
   <path d="m50.8 329.9c0 0.6-0.1 1.2-0.2 1.7s-0.4 0.9-0.7 1.3-0.7 0.6-1.1 0.8-1 0.3-1.5 0.3c-0.6 0-1.1-0.1-1.5-0.3s-0.8-0.4-1-0.8c-0.3-0.3-0.5-0.7-0.6-1.2s-0.2-1-0.2-1.7c0-0.6 0.1-1.2 0.2-1.7s0.4-0.9 0.7-1.3 0.7-0.6 1.1-0.8 1-0.3 1.5-0.3c0.6 0 1.1 0.1 1.5 0.3s0.8 0.4 1.1 0.7 0.5 0.7 0.6 1.2c0 0.6 0.1 1.1 0.1 1.8zm-1.1 0c0-0.4 0-0.8-0.1-1.2s-0.2-0.7-0.4-1-0.4-0.5-0.7-0.6c-0.3-0.2-0.7-0.2-1.1-0.2s-0.8 0.1-1.1 0.3-0.5 0.4-0.7 0.7-0.3 0.6-0.4 1-0.1 0.8-0.1 1.2c0 0.5 0 0.9 0.1 1.3s0.2 0.7 0.4 1 0.4 0.5 0.7 0.6c0.3 0.2 0.7 0.2 1.1 0.2s0.8-0.1 1.1-0.3 0.6-0.4 0.7-0.7c0.2-0.3 0.3-0.6 0.4-1s0.1-0.9 0.1-1.3z"/>
   <path d="m57.2 330.9c0 0.5-0.1 0.9-0.2 1.3s-0.3 0.7-0.4 1c-0.2 0.3-0.4 0.5-0.7 0.6s-0.6 0.2-1 0.2h-0.4c-0.1 0-0.3-0.1-0.4-0.1-0.1-0.1-0.3-0.2-0.4-0.3s-0.3-0.2-0.4-0.4v2.7 0.1l-0.1 0.1h-0.1-0.2-0.2-0.2s-0.1 0-0.1-0.1v-0.1-7.5-0.1l0.1-0.1h0.1 0.2 0.2 0.1s0.1 0 0.1 0.1v0.1 0.7c0.2-0.2 0.3-0.3 0.5-0.4s0.3-0.2 0.5-0.3 0.3-0.1 0.5-0.2c0.2 0 0.3-0.1 0.5-0.1 0.4 0 0.7 0.1 1 0.2 0.3 0.2 0.5 0.4 0.7 0.6 0.2 0.3 0.3 0.6 0.4 0.9-0.1 0.3-0.1 0.7-0.1 1.1zm-1 0.1c0-0.3 0-0.5-0.1-0.8 0-0.3-0.1-0.5-0.2-0.7s-0.2-0.4-0.4-0.5-0.4-0.2-0.6-0.2c-0.1 0-0.3 0-0.4 0.1-0.1 0-0.3 0.1-0.4 0.2s-0.3 0.2-0.4 0.3-0.3 0.3-0.4 0.5v2.1c0.3 0.3 0.5 0.6 0.8 0.8s0.5 0.3 0.8 0.3c0.2 0 0.5-0.1 0.6-0.2s0.3-0.3 0.4-0.5 0.2-0.4 0.2-0.7c0.1-0.2 0.1-0.5 0.1-0.7z"/>
   <path d="m63.2 330.7c0 0.2 0 0.3-0.1 0.3-0.1 0.1-0.2 0.1-0.3 0.1h-3.5c0 0.3 0 0.6 0.1 0.8l0.3 0.6c0.1 0.2 0.3 0.3 0.5 0.4s0.5 0.1 0.8 0.1 0.5 0 0.7-0.1c0.2 0 0.4-0.1 0.5-0.1 0.1-0.1 0.3-0.1 0.4-0.1s0.2-0.1 0.2-0.1h0.1l0.1 0.1v0.1 0.2 0.1 0.1 0.1l-0.1 0.1s-0.1 0.1-0.2 0.1-0.2 0.1-0.4 0.1-0.4 0.1-0.6 0.1-0.5 0.1-0.7 0.1c-0.4 0-0.8-0.1-1.2-0.2s-0.6-0.3-0.8-0.5-0.4-0.5-0.5-0.9-0.2-0.8-0.2-1.3 0.1-0.9 0.2-1.2 0.3-0.7 0.5-0.9c0.2-0.3 0.5-0.5 0.8-0.6s0.7-0.2 1.1-0.2 0.8 0.1 1.1 0.2 0.5 0.3 0.7 0.5 0.3 0.5 0.4 0.8 0.1 0.6 0.1 1v0.2zm-0.9-0.3c0-0.5-0.1-0.9-0.3-1.2s-0.6-0.4-1.1-0.4c-0.2 0-0.5 0-0.6 0.1-0.2 0.1-0.3 0.2-0.5 0.4-0.1 0.2-0.2 0.3-0.3 0.5s-0.1 0.4-0.1 0.6h2.9z"/>
   <path d="m69.4 333.6v0c0 0.1-0.1 0.1-0.1 0.1h-0.1-0.2-0.2-0.1s-0.1 0-0.1-0.1v-0.1-3.1c0-0.3 0-0.6-0.1-0.7 0-0.2-0.1-0.3-0.2-0.5-0.1-0.1-0.2-0.2-0.4-0.3s-0.3-0.1-0.5-0.1-0.5 0.1-0.7 0.3-0.5 0.4-0.8 0.8v3.7 0.1l-0.1 0.1c-0.1 0.1-0.1 0-0.1 0h-0.2-0.2-0.2c-0.1 0-0.1 0-0.1-0.1v-0.1-5.4-0.1l0.1-0.1h0.1 0.2 0.2 0.1s0.1 0 0.1 0.1v0.1 0.7c0.3-0.3 0.6-0.6 0.9-0.7s0.6-0.2 0.9-0.2c0.4 0 0.7 0.1 0.9 0.2s0.4 0.3 0.6 0.5 0.3 0.4 0.3 0.7c0.1 0.3 0.1 0.6 0.1 1v3.2z"/>
   <path d="m78.2 331.6c0 0.4-0.1 0.7-0.2 1s-0.3 0.5-0.6 0.7-0.5 0.3-0.8 0.4-0.7 0.1-1 0.1-0.5 0-0.7-0.1c-0.2 0-0.4-0.1-0.6-0.2s-0.3-0.1-0.4-0.2-0.2-0.1-0.2-0.2c0 0-0.1-0.1-0.1-0.2v-0.3-0.2-0.1s0-0.1 0.1-0.1h0.1c0.1 0 0.1 0 0.2 0.1s0.2 0.1 0.4 0.2 0.4 0.2 0.6 0.2c0.2 0.1 0.5 0.1 0.8 0.1 0.2 0 0.4 0 0.6-0.1s0.3-0.1 0.5-0.3c0.1-0.1 0.2-0.2 0.3-0.4s0.1-0.3 0.1-0.5 0-0.4-0.1-0.6-0.2-0.3-0.4-0.4-0.3-0.2-0.6-0.3l-0.6-0.3-0.6-0.3c-0.2-0.1-0.4-0.3-0.6-0.4-0.2-0.2-0.3-0.4-0.4-0.6s-0.2-0.5-0.2-0.8 0.1-0.6 0.2-0.9 0.3-0.5 0.5-0.6c0.2-0.2 0.5-0.3 0.7-0.4 0.3-0.1 0.6-0.1 0.9-0.1h0.5c0.2 0 0.3 0.1 0.5 0.1s0.3 0.1 0.4 0.2 0.2 0.1 0.2 0.1l0.1 0.1v0.1 0.1 0.2 0.2 0.1s0 0.1-0.1 0.1h-0.1s-0.1 0-0.2-0.1-0.2-0.1-0.3-0.2-0.3-0.1-0.5-0.2-0.4-0.1-0.6-0.1-0.4 0-0.6 0.1-0.3 0.1-0.4 0.2-0.2 0.2-0.2 0.3-0.1 0.3-0.1 0.4c0 0.2 0 0.4 0.1 0.6s0.2 0.3 0.4 0.4l0.6 0.3 0.6 0.3 0.6 0.3c0.2 0.1 0.4 0.3 0.6 0.4 0.2 0.2 0.3 0.4 0.4 0.6 0.1 0.7 0.2 0.9 0.2 1.2z"/>
   <path d="m84.5 330.9c0 0.4-0.1 0.8-0.2 1.2s-0.3 0.7-0.5 1-0.5 0.5-0.9 0.6c-0.3 0.1-0.7 0.2-1.2 0.2-0.4 0-0.8-0.1-1.2-0.2-0.3-0.1-0.6-0.3-0.8-0.6s-0.4-0.6-0.5-0.9c-0.1-0.4-0.2-0.8-0.2-1.2s0.1-0.8 0.2-1.2 0.3-0.7 0.5-1 0.5-0.5 0.9-0.6c0.3-0.1 0.7-0.2 1.2-0.2 0.4 0 0.8 0.1 1.2 0.2 0.3 0.1 0.6 0.3 0.8 0.6s0.4 0.6 0.5 0.9c0.1 0.4 0.2 0.8 0.2 1.2zm-1 0.1c0-0.3 0-0.6-0.1-0.8-0.1-0.3-0.1-0.5-0.3-0.7-0.1-0.2-0.3-0.3-0.5-0.5s-0.5-0.2-0.8-0.2-0.5 0.1-0.8 0.2c-0.2 0.1-0.4 0.3-0.5 0.4s-0.2 0.4-0.3 0.7-0.1 0.5-0.1 0.8 0 0.6 0.1 0.8 0.1 0.5 0.3 0.7c0.1 0.2 0.3 0.3 0.5 0.5s0.5 0.2 0.8 0.2 0.5-0.1 0.8-0.2c0.2-0.1 0.4-0.2 0.5-0.4s0.2-0.4 0.3-0.7c0.1-0.2 0.1-0.5 0.1-0.8z"/>
   <path d="m90.5 333.6v0c0 0.1-0.1 0.1-0.1 0.1h-0.1-0.2-0.2-0.1s-0.1 0-0.1-0.1v-0.1-0.7c-0.3 0.3-0.6 0.6-0.9 0.7s-0.6 0.2-0.9 0.2c-0.4 0-0.7-0.1-0.9-0.2s-0.4-0.3-0.6-0.5-0.3-0.4-0.3-0.7c-0.1-0.3-0.1-0.6-0.1-1v-3.3-0.1l0.1-0.1c0.1-0.1 0.1 0 0.2 0h0.2 0.2 0.2s0.1 0 0.1 0.1v0.1 3.1c0 0.3 0 0.6 0.1 0.8 0 0.2 0.1 0.3 0.2 0.5 0.1 0.1 0.2 0.2 0.4 0.3s0.3 0.1 0.5 0.1 0.5-0.1 0.7-0.3 0.5-0.4 0.8-0.8v-3.7-0.1l0.1-0.1c0.1-0.1 0.1 0 0.2 0h0.2 0.2 0.1s0.1 0 0.1 0.1v0.1 5.6z"/>
   <path d="m95.5 328.6v0.2 0.1 0.1h-0.1-0.1s-0.1 0-0.2-0.1-0.1 0-0.2-0.1h-0.2c-0.1 0-0.2 0-0.3 0.1-0.1 0-0.2 0.1-0.3 0.2s-0.2 0.2-0.3 0.4-0.2 0.3-0.4 0.6v3.5 0.1l-0.1 0.1c-0.1 0.1-0.1 0-0.1 0h-0.2-0.2-0.2c-0.1 0-0.1 0-0.1-0.1v-0.1-5.4-0.1l0.1-0.1h0.1 0.2 0.2 0.1s0.1 0 0.1 0.1v0.1 0.8c0.1-0.2 0.3-0.4 0.4-0.5s0.3-0.2 0.4-0.3 0.2-0.1 0.3-0.2h0.3 0.2 0.2c0.1 0 0.1 0 0.2 0.1 0.1 0 0.1 0 0.1 0.1v0.1 0.1 0.1s0.1 0 0.1 0.1z"/>
   <path d="m100.3 332.8v0.2 0.1 0.1s0 0.1-0.1 0.1c0 0-0.1 0.1-0.3 0.2-0.1 0.1-0.3 0.1-0.4 0.2s-0.3 0.1-0.5 0.1-0.4 0.1-0.5 0.1c-0.4 0-0.7-0.1-1-0.2s-0.5-0.3-0.7-0.6c-0.2-0.2-0.4-0.5-0.5-0.9s-0.2-0.8-0.2-1.2c0-0.5 0.1-1 0.2-1.4s0.3-0.7 0.5-0.9 0.5-0.4 0.8-0.5 0.6-0.2 1-0.2h0.5c0.2 0 0.3 0.1 0.4 0.1 0.1 0.1 0.3 0.1 0.4 0.2s0.2 0.1 0.2 0.2l0.1 0.1v0.1 0.1 0.2c0 0.2 0 0.3-0.1 0.3 0 0.1-0.1 0.1-0.1 0.1-0.1 0-0.1 0-0.2-0.1s-0.2-0.1-0.3-0.2-0.3-0.2-0.4-0.2c-0.2-0.1-0.4-0.1-0.6-0.1-0.5 0-0.8 0.2-1.1 0.5-0.3 0.4-0.4 0.9-0.4 1.6 0 0.3 0 0.6 0.1 0.9s0.2 0.5 0.3 0.7 0.3 0.3 0.5 0.4 0.4 0.1 0.6 0.1 0.4 0 0.6-0.1 0.3-0.2 0.4-0.2c0.1-0.1 0.2-0.2 0.3-0.2s0.2-0.1 0.2-0.1h0.1l0.1 0.1v0.1l0.1 0.2z"/>
   <path d="m106.2 330.7c0 0.2 0 0.3-0.1 0.3-0.1 0.1-0.2 0.1-0.3 0.1h-3.5c0 0.3 0 0.6 0.1 0.8l0.3 0.6c0.1 0.2 0.3 0.3 0.5 0.4s0.5 0.1 0.8 0.1 0.5 0 0.7-0.1c0.2 0 0.4-0.1 0.5-0.1 0.1-0.1 0.3-0.1 0.4-0.1s0.2-0.1 0.2-0.1h0.1l0.1 0.1v0.1 0.2 0.1 0.1 0.1l-0.1 0.1s-0.1 0.1-0.2 0.1-0.2 0.1-0.4 0.1-0.4 0.1-0.6 0.1-0.5 0.1-0.7 0.1c-0.4 0-0.8-0.1-1.2-0.2s-0.6-0.3-0.8-0.5-0.4-0.5-0.5-0.9-0.2-0.8-0.2-1.3 0.1-0.9 0.2-1.2 0.3-0.7 0.5-0.9c0.2-0.3 0.5-0.5 0.8-0.6s0.7-0.2 1.1-0.2 0.8 0.1 1.1 0.2 0.5 0.3 0.7 0.5 0.3 0.5 0.4 0.8 0.1 0.6 0.1 1v0.2zm-1-0.3c0-0.5-0.1-0.9-0.3-1.2s-0.6-0.4-1.1-0.4c-0.2 0-0.5 0-0.6 0.1-0.2 0.1-0.3 0.2-0.5 0.4-0.1 0.2-0.2 0.3-0.3 0.5s-0.1 0.4-0.1 0.6h2.9z"/>
   <path d="m115.3 328.3c0 0.4-0.1 0.7-0.2 1s-0.3 0.6-0.5 0.8-0.5 0.4-0.9 0.5c-0.3 0.1-0.8 0.2-1.2 0.2h-0.9v2.8 0.1l-0.1 0.1c-0.1 0.1-0.1 0-0.2 0h-0.2-0.2-0.2c-0.1 0-0.1 0-0.1-0.1v-0.1-7.1c0-0.2 0-0.3 0.1-0.3 0.1-0.1 0.2-0.1 0.3-0.1h1.6 0.5c0.2 0 0.3 0 0.5 0.1 0.2 0 0.4 0.1 0.6 0.3s0.4 0.3 0.6 0.5 0.3 0.4 0.3 0.6c0.1 0.2 0.2 0.5 0.2 0.7zm-1.1 0.1c0-0.3-0.1-0.6-0.2-0.8s-0.3-0.4-0.4-0.5c-0.2-0.1-0.4-0.2-0.5-0.2h-0.5-0.9v3.1h0.9c0.3 0 0.6 0 0.8-0.1s0.4-0.2 0.5-0.3 0.2-0.3 0.3-0.5v-0.7z"/>
   <path d="m119.9 328.6v0.2 0.1 0.1h-0.1-0.1s-0.1 0-0.2-0.1-0.1 0-0.2-0.1h-0.2c-0.1 0-0.2 0-0.3 0.1-0.1 0-0.2 0.1-0.3 0.2s-0.2 0.2-0.3 0.4-0.2 0.3-0.4 0.6v3.5 0.1l-0.1 0.1c-0.1 0.1-0.1 0-0.1 0h-0.2-0.2-0.2c-0.1 0-0.1 0-0.1-0.1v-0.1-5.4-0.1l0.1-0.1h0.1 0.2 0.2 0.1s0.1 0 0.1 0.1v0.1 0.8c0.1-0.2 0.3-0.4 0.4-0.5s0.3-0.2 0.4-0.3 0.2-0.1 0.3-0.2h0.3 0.2 0.2c0.1 0 0.1 0 0.2 0.1 0.1 0 0.1 0 0.1 0.1v0.1 0.1 0.1s0.1 0 0.1 0.1z"/>
   <path d="m125.8 330.9c0 0.4-0.1 0.8-0.2 1.2s-0.3 0.7-0.5 1-0.5 0.5-0.9 0.6c-0.3 0.1-0.7 0.2-1.2 0.2-0.4 0-0.8-0.1-1.2-0.2-0.3-0.1-0.6-0.3-0.8-0.6s-0.4-0.6-0.5-0.9c-0.1-0.4-0.2-0.8-0.2-1.2s0.1-0.8 0.2-1.2 0.3-0.7 0.5-1 0.5-0.5 0.9-0.6c0.3-0.1 0.7-0.2 1.2-0.2 0.4 0 0.8 0.1 1.2 0.2 0.3 0.1 0.6 0.3 0.8 0.6s0.4 0.6 0.5 0.9c0.1 0.4 0.2 0.8 0.2 1.2zm-1.1 0.1c0-0.3 0-0.6-0.1-0.8-0.1-0.3-0.1-0.5-0.3-0.7-0.1-0.2-0.3-0.3-0.5-0.5s-0.5-0.2-0.8-0.2-0.5 0.1-0.8 0.2c-0.2 0.1-0.4 0.3-0.5 0.4s-0.2 0.4-0.3 0.7-0.1 0.5-0.1 0.8 0 0.6 0.1 0.8 0.1 0.5 0.3 0.7c0.1 0.2 0.3 0.3 0.5 0.5s0.5 0.2 0.8 0.2 0.5-0.1 0.8-0.2c0.2-0.1 0.4-0.2 0.5-0.4s0.2-0.4 0.3-0.7c0.1-0.2 0.1-0.5 0.1-0.8z"/>
   <path d="m131.7 328.5c0 0.1 0 0.2-0.1 0.3l-0.1 0.1h-0.8c0.1 0.1 0.2 0.3 0.3 0.5s0.1 0.4 0.1 0.5c0 0.3 0 0.6-0.1 0.8s-0.2 0.4-0.4 0.6-0.4 0.3-0.7 0.4-0.5 0.1-0.8 0.1c-0.2 0-0.4 0-0.6-0.1s-0.3-0.1-0.5-0.2c-0.1 0.1-0.1 0.2-0.2 0.2 0 0.1-0.1 0.2-0.1 0.3s0.1 0.3 0.2 0.3c0.1 0.1 0.3 0.1 0.5 0.1l1.4 0.1c0.3 0 0.5 0 0.7 0.1l0.6 0.3c0.2 0.1 0.3 0.3 0.4 0.4s0.1 0.4 0.1 0.6-0.1 0.5-0.2 0.7-0.3 0.4-0.5 0.6-0.5 0.3-0.8 0.4-0.7 0.1-1.2 0.1c-0.4 0-0.8 0-1.1-0.1s-0.6-0.2-0.7-0.3c-0.2-0.1-0.3-0.3-0.4-0.5s-0.1-0.4-0.1-0.6v-0.4c0-0.1 0.1-0.2 0.1-0.4s0.1-0.2 0.2-0.3l0.3-0.3c-0.2-0.1-0.3-0.2-0.4-0.4s-0.1-0.3-0.1-0.5 0-0.5 0.1-0.6c0.1-0.2 0.2-0.4 0.4-0.5-0.1-0.1-0.2-0.3-0.3-0.5s-0.1-0.4-0.1-0.7 0.1-0.6 0.2-0.8 0.2-0.4 0.4-0.6 0.4-0.3 0.7-0.4 0.5-0.1 0.8-0.1h0.5c0.1 0 0.3 0 0.4 0.1h1.6c0.1 0 0.1 0 0.2 0.1 0.1 0.4 0.1 0.5 0.1 0.6zm-1 5.7c0-0.2-0.1-0.4-0.3-0.5s-0.4-0.2-0.8-0.2h-1.4l-0.3 0.3c-0.1 0.1-0.1 0.2-0.2 0.3 0 0.1-0.1 0.2-0.1 0.2v0.2c0 0.3 0.1 0.5 0.4 0.6s0.6 0.2 1.1 0.2c0.3 0 0.5 0 0.7-0.1s0.4-0.1 0.5-0.2l0.3-0.3c0-0.2 0.1-0.4 0.1-0.5zm-0.5-4.3c0-0.4-0.1-0.7-0.3-0.9s-0.5-0.3-0.9-0.3c-0.2 0-0.4 0-0.5 0.1s-0.3 0.2-0.4 0.3-0.2 0.2-0.2 0.4c0 0.1-0.1 0.3-0.1 0.5 0 0.4 0.1 0.6 0.3 0.8s0.5 0.3 0.8 0.3c0.2 0 0.4 0 0.5-0.1s0.3-0.1 0.4-0.3 0.2-0.2 0.2-0.4c0.1-0.1 0.2-0.2 0.2-0.4z"/>
   <path d="m136.1 328.6v0.2 0.1 0.1h-0.1-0.1s-0.1 0-0.2-0.1-0.1 0-0.2-0.1h-0.2c-0.1 0-0.2 0-0.3 0.1-0.1 0-0.2 0.1-0.3 0.2s-0.2 0.2-0.3 0.4-0.2 0.3-0.4 0.6v3.5 0.1l-0.1 0.1c-0.1 0.1-0.1 0-0.1 0h-0.2-0.2-0.2c-0.1 0-0.1 0-0.1-0.1v-0.1-5.4-0.1l0.1-0.1h0.1 0.2 0.2 0.1s0.1 0 0.1 0.1v0.1 0.8c0.1-0.2 0.3-0.4 0.4-0.5s0.3-0.2 0.4-0.3 0.2-0.1 0.3-0.2h0.3 0.2 0.2c0.1 0 0.1 0 0.2 0.1 0.1 0 0.1 0 0.1 0.1v0.1 0.1 0.1s0.1 0 0.1 0.1z"/>
   <path d="m141 333.7v0.1s-0.1 0-0.1 0.1-0.1 0-0.2 0h-0.2s-0.1 0-0.1-0.1v-0.1-0.5c-0.2 0.3-0.5 0.4-0.8 0.6-0.3 0.1-0.6 0.2-0.9 0.2s-0.5 0-0.8-0.1-0.4-0.2-0.6-0.3-0.3-0.3-0.4-0.5-0.1-0.4-0.1-0.7 0.1-0.6 0.2-0.8 0.3-0.4 0.5-0.6c0.2-0.1 0.5-0.3 0.8-0.3 0.3-0.1 0.7-0.1 1.1-0.1h0.7v-0.4c0-0.2 0-0.4-0.1-0.5 0-0.2-0.1-0.3-0.2-0.4s-0.2-0.2-0.4-0.2c-0.2-0.1-0.3-0.1-0.6-0.1-0.2 0-0.5 0-0.7 0.1s-0.4 0.1-0.5 0.2-0.3 0.1-0.4 0.2-0.2 0.1-0.2 0.1h-0.1l-0.1-0.1v-0.1-0.2-0.2c0-0.1 0-0.1 0.1-0.2s0.1-0.1 0.3-0.2c0.1-0.1 0.3-0.1 0.5-0.2s0.4-0.1 0.6-0.1 0.4-0.1 0.6-0.1c0.4 0 0.7 0 1 0.1s0.5 0.2 0.7 0.4 0.3 0.4 0.4 0.6c0.1 0.3 0.1 0.5 0.1 0.9v3.5zm-1-2.5h-0.8c-0.3 0-0.5 0-0.7 0.1-0.2 0-0.4 0.1-0.5 0.2l-0.3 0.3c-0.1 0.1-0.1 0.3-0.1 0.4 0 0.3 0.1 0.5 0.3 0.7s0.4 0.2 0.7 0.2 0.5-0.1 0.7-0.2 0.5-0.3 0.7-0.6v-1.1z"/>
   <path d="m150.8 333.6c0 0.1-0.1 0.1 0 0 0 0.1-0.1 0.1-0.1 0.1h-0.1-0.2-0.2-0.2c-0.1 0-0.1 0-0.1-0.1v-0.1-3.3c0-0.2 0-0.4-0.1-0.6 0-0.2-0.1-0.3-0.2-0.5l-0.3-0.3c-0.1-0.1-0.3-0.1-0.5-0.1s-0.5 0.1-0.7 0.3-0.5 0.4-0.8 0.8v3.7 0.1l-0.1 0.1c-0.1 0.1-0.1 0-0.2 0h-0.2-0.2-0.2c-0.1 0-0.1 0-0.1-0.1v-0.1-3.3c0-0.2 0-0.4-0.1-0.6 0-0.2-0.1-0.3-0.2-0.5l-0.3-0.3c-0.1-0.1-0.3-0.1-0.5-0.1s-0.5 0.1-0.7 0.3-0.5 0.4-0.8 0.8v3.7 0.1l-0.1 0.1c-0.1 0.1-0.1 0-0.1 0h-0.2-0.2-0.2c-0.1 0-0.1 0-0.1-0.1v-0.1-5.4-0.1l0.1-0.1h0.1 0.2 0.2 0.1s0.1 0 0.1 0.1v0.1 0.7c0.3-0.3 0.6-0.6 0.9-0.7 0.3-0.2 0.6-0.2 0.9-0.2 0.2 0 0.4 0 0.6 0.1s0.3 0.1 0.5 0.2c0.1 0.1 0.3 0.2 0.3 0.3 0.1 0.1 0.2 0.3 0.2 0.4 0.2-0.2 0.3-0.4 0.5-0.5s0.3-0.2 0.5-0.3 0.3-0.1 0.4-0.2c0.1 0 0.3-0.1 0.4-0.1 0.3 0 0.6 0.1 0.9 0.2s0.4 0.3 0.6 0.5c0.1 0.2 0.2 0.4 0.3 0.7s0.1 0.6 0.1 0.9v3.5z"/>
   <path d="m156.4 326.5c0 0.2 0 0.4-0.1 0.5s-0.2 0.1-0.5 0.1c-0.2 0-0.4 0-0.5-0.1s-0.1-0.2-0.1-0.5c0-0.2 0-0.4 0.1-0.5s0.2-0.1 0.5-0.1c0.2 0 0.4 0 0.5 0.1s0.1 0.2 0.1 0.5zm-0.1 7.1v0c0 0.1-0.1 0.1-0.1 0.1h-0.1-0.2-0.2-0.2c-0.1 0-0.1 0-0.1-0.1v-0.1-5.4-0.1l0.1-0.1c0.1-0.1 0.1 0 0.2 0h0.2 0.2 0.1s0.1 0 0.1 0.1v0.1 5.5z"/>
   <path d="m161.5 332.2c0 0.3-0.1 0.5-0.2 0.7s-0.2 0.4-0.4 0.5-0.4 0.3-0.7 0.3c-0.3 0.1-0.5 0.1-0.9 0.1h-0.5c-0.2 0-0.3-0.1-0.5-0.1-0.1 0-0.3-0.1-0.3-0.1-0.1 0-0.2-0.1-0.2-0.1s-0.1-0.1-0.1-0.2v-0.3-0.2-0.1s0-0.1 0.1-0.1h0.1s0.1 0 0.2 0.1 0.2 0.1 0.3 0.2 0.3 0.1 0.4 0.2c0.2 0.1 0.4 0.1 0.6 0.1s0.3 0 0.5-0.1c0.1 0 0.3-0.1 0.4-0.2s0.2-0.2 0.2-0.3c0.1-0.1 0.1-0.2 0.1-0.4s0-0.3-0.1-0.4l-0.3-0.3c-0.1-0.1-0.3-0.1-0.4-0.2-0.2-0.1-0.3-0.1-0.5-0.2s-0.3-0.1-0.5-0.2-0.3-0.2-0.4-0.3-0.2-0.3-0.3-0.4c-0.1-0.2-0.1-0.4-0.1-0.6s0-0.4 0.1-0.6 0.2-0.4 0.4-0.5 0.4-0.3 0.6-0.3c0.2-0.1 0.5-0.1 0.9-0.1h0.4c0.1 0 0.3 0.1 0.4 0.1s0.2 0.1 0.3 0.1 0.1 0.1 0.2 0.1l0.1 0.1v0.1 0.1 0.2 0.2 0.1s0 0.1-0.1 0.1h-0.1s-0.1 0-0.2-0.1c-0.1 0-0.2-0.1-0.3-0.1s-0.2-0.1-0.4-0.1c-0.1 0-0.3-0.1-0.5-0.1s-0.3 0-0.4 0.1c-0.1 0-0.2 0.1-0.3 0.2s-0.1 0.2-0.2 0.2c0 0.1-0.1 0.2-0.1 0.3 0 0.2 0 0.3 0.1 0.4l0.3 0.3c0.1 0.1 0.3 0.2 0.4 0.2 0.2 0.1 0.3 0.1 0.5 0.2s0.3 0.1 0.5 0.2 0.3 0.2 0.4 0.3 0.2 0.3 0.3 0.4 0.2 0.3 0.2 0.5z"/>
   <path d="m170.2 333.6v0c0 0.1-0.1 0.1-0.1 0.1h-0.1-0.2-0.2-0.1s-0.1 0-0.1-0.1v-0.1-0.7c-0.3 0.3-0.6 0.5-0.9 0.7s-0.6 0.3-1 0.3-0.7-0.1-1-0.2c-0.3-0.2-0.5-0.4-0.7-0.6-0.2-0.3-0.3-0.6-0.4-0.9s-0.1-0.7-0.1-1.1c0-0.5 0-0.9 0.1-1.2 0.1-0.4 0.2-0.7 0.4-1s0.4-0.5 0.7-0.6 0.6-0.2 1-0.2c0.3 0 0.6 0.1 0.9 0.2s0.5 0.3 0.8 0.6v-3.1-0.1l0.1-0.1c0.1-0.1 0.1 0 0.2 0h0.2 0.2 0.1s0.1 0 0.1 0.1v0.1 7.9zm-1-3.7c-0.3-0.3-0.5-0.6-0.8-0.8-0.2-0.2-0.5-0.3-0.8-0.3s-0.5 0.1-0.6 0.2-0.3 0.3-0.4 0.5-0.2 0.4-0.2 0.7-0.1 0.5-0.1 0.8 0 0.5 0.1 0.8c0 0.3 0.1 0.5 0.2 0.7s0.2 0.4 0.4 0.5 0.4 0.2 0.6 0.2c0.1 0 0.3 0 0.4-0.1s0.2-0.1 0.4-0.2c0.1-0.1 0.3-0.2 0.4-0.3s0.3-0.3 0.4-0.5v-2.2z"/>
   <path d="m176.6 330.7c0 0.2 0 0.3-0.1 0.3-0.1 0.1-0.2 0.1-0.3 0.1h-3.5c0 0.3 0 0.6 0.1 0.8l0.3 0.6c0.1 0.2 0.3 0.3 0.5 0.4s0.5 0.1 0.8 0.1 0.5 0 0.7-0.1c0.2 0 0.4-0.1 0.5-0.1 0.1-0.1 0.3-0.1 0.4-0.1s0.2-0.1 0.2-0.1h0.1l0.1 0.1v0.1 0.2 0.1 0.1 0.1l-0.1 0.1s-0.1 0.1-0.2 0.1-0.2 0.1-0.4 0.1-0.4 0.1-0.6 0.1-0.5 0.1-0.7 0.1c-0.4 0-0.8-0.1-1.2-0.2s-0.6-0.3-0.8-0.5-0.4-0.5-0.5-0.9-0.2-0.8-0.2-1.3 0.1-0.9 0.2-1.2 0.3-0.7 0.5-0.9c0.2-0.3 0.5-0.5 0.8-0.6s0.7-0.2 1.1-0.2 0.8 0.1 1.1 0.2 0.5 0.3 0.7 0.5 0.3 0.5 0.4 0.8 0.1 0.6 0.1 1v0.2zm-1-0.3c0-0.5-0.1-0.9-0.3-1.2s-0.6-0.4-1.1-0.4c-0.2 0-0.5 0-0.6 0.1-0.2 0.1-0.3 0.2-0.5 0.4-0.1 0.2-0.2 0.3-0.3 0.5s-0.1 0.4-0.1 0.6h2.9z"/>
   <path d="m182.5 328.3v0.1 0.1 0.1l-1.8 5.1s0 0.1-0.1 0.1c0 0-0.1 0-0.1 0.1s-0.1 0-0.2 0h-0.3-0.3-0.2c-0.1 0-0.1 0-0.1-0.1 0 0 0-0.1-0.1-0.1l-1.8-5.1v-0.1-0.1-0.1l0.1-0.1h0.1 0.2 0.3 0.2s0.1 0 0.1 0.1c0 0 0 0.1 0.1 0.1l1.5 4.4v0.1-0.1l1.5-4.4v-0.1l0.1-0.1c0.1-0.1 0.1 0 0.2 0h0.3 0.2 0.1s-0.1 0 0 0.1c-0.1-0.1 0-0.1 0 0z"/>
   <path d="m188 330.7c0 0.2 0 0.3-0.1 0.3-0.1 0.1-0.2 0.1-0.3 0.1h-3.5c0 0.3 0 0.6 0.1 0.8l0.3 0.6c0.1 0.2 0.3 0.3 0.5 0.4s0.5 0.1 0.8 0.1 0.5 0 0.7-0.1c0.2 0 0.4-0.1 0.5-0.1 0.1-0.1 0.3-0.1 0.4-0.1s0.2-0.1 0.2-0.1h0.1l0.1 0.1v0.1 0.2 0.1 0.1 0.1l-0.1 0.1s-0.1 0.1-0.2 0.1-0.2 0.1-0.4 0.1-0.4 0.1-0.6 0.1-0.5 0.1-0.7 0.1c-0.4 0-0.8-0.1-1.2-0.2s-0.6-0.3-0.8-0.5-0.4-0.5-0.5-0.9-0.2-0.8-0.2-1.3 0.1-0.9 0.2-1.2 0.3-0.7 0.5-0.9c0.2-0.3 0.5-0.5 0.8-0.6s0.7-0.2 1.1-0.2 0.8 0.1 1.1 0.2 0.5 0.3 0.7 0.5 0.3 0.5 0.4 0.8 0.1 0.6 0.1 1v0.2zm-1-0.3c0-0.5-0.1-0.9-0.3-1.2s-0.6-0.4-1.1-0.4c-0.2 0-0.5 0-0.6 0.1-0.2 0.1-0.3 0.2-0.5 0.4-0.1 0.2-0.2 0.3-0.3 0.5s-0.1 0.4-0.1 0.6h2.9z"/>
   <path d="m190.5 333.6v0c0 0.1-0.1 0.1-0.1 0.1h-0.1-0.2-0.2-0.2c-0.1 0-0.1 0-0.1-0.1v-0.1-8-0.1l0.1-0.1h0.2 0.2 0.2 0.1s0.1 0 0.1 0.1v0.1 8.1z"/>
   <path d="m197.3 330.9c0 0.4-0.1 0.8-0.2 1.2s-0.3 0.7-0.5 1-0.5 0.5-0.9 0.6c-0.3 0.1-0.7 0.2-1.2 0.2-0.4 0-0.8-0.1-1.2-0.2-0.3-0.1-0.6-0.3-0.8-0.6s-0.4-0.6-0.5-0.9c-0.1-0.4-0.2-0.8-0.2-1.2s0.1-0.8 0.2-1.2 0.3-0.7 0.5-1 0.5-0.5 0.9-0.6c0.3-0.1 0.7-0.2 1.2-0.2 0.4 0 0.8 0.1 1.2 0.2 0.3 0.1 0.6 0.3 0.8 0.6s0.4 0.6 0.5 0.9c0.2 0.4 0.2 0.8 0.2 1.2zm-1 0.1c0-0.3 0-0.6-0.1-0.8-0.1-0.3-0.1-0.5-0.3-0.7-0.1-0.2-0.3-0.3-0.5-0.5s-0.5-0.2-0.8-0.2-0.5 0.1-0.8 0.2c-0.2 0.1-0.4 0.3-0.5 0.4s-0.2 0.4-0.3 0.7-0.1 0.5-0.1 0.8 0 0.6 0.1 0.8 0.1 0.5 0.3 0.7c0.1 0.2 0.3 0.3 0.5 0.5s0.5 0.2 0.8 0.2 0.5-0.1 0.8-0.2c0.2-0.1 0.4-0.2 0.5-0.4s0.2-0.4 0.3-0.7c0.1-0.2 0.1-0.5 0.1-0.8z"/>
   <path d="m203.7 330.9c0 0.5-0.1 0.9-0.2 1.3s-0.3 0.7-0.4 1c-0.2 0.3-0.4 0.5-0.7 0.6s-0.6 0.2-1 0.2h-0.4c-0.1 0-0.3-0.1-0.4-0.1-0.1-0.1-0.3-0.2-0.4-0.3s-0.3-0.2-0.4-0.4v2.7 0.1l-0.1 0.1h-0.1-0.2-0.2-0.2s-0.1 0-0.1-0.1v-0.1-7.5-0.1l0.1-0.1h0.1 0.2 0.2 0.1s0.1 0 0.1 0.1v0.1 0.7c0.2-0.2 0.3-0.3 0.5-0.4s0.3-0.2 0.5-0.3 0.3-0.1 0.5-0.2c0.2 0 0.3-0.1 0.5-0.1 0.4 0 0.7 0.1 1 0.2 0.3 0.2 0.5 0.4 0.7 0.6 0.2 0.3 0.3 0.6 0.4 0.9-0.2 0.3-0.1 0.7-0.1 1.1zm-1 0.1c0-0.3 0-0.5-0.1-0.8 0-0.3-0.1-0.5-0.2-0.7s-0.2-0.4-0.4-0.5-0.4-0.2-0.6-0.2c-0.1 0-0.3 0-0.4 0.1-0.1 0-0.3 0.1-0.4 0.2s-0.3 0.2-0.4 0.3-0.3 0.3-0.4 0.5v2.1c0.3 0.3 0.5 0.6 0.8 0.8s0.5 0.3 0.8 0.3c0.2 0 0.5-0.1 0.6-0.2s0.3-0.3 0.4-0.5 0.2-0.4 0.2-0.7c0-0.2 0.1-0.5 0.1-0.7z"/>
   <path d="m209.7 330.7c0 0.2 0 0.3-0.1 0.3-0.1 0.1-0.2 0.1-0.3 0.1h-3.5c0 0.3 0 0.6 0.1 0.8l0.3 0.6c0.1 0.2 0.3 0.3 0.5 0.4s0.5 0.1 0.8 0.1 0.5 0 0.7-0.1c0.2 0 0.4-0.1 0.5-0.1 0.1-0.1 0.3-0.1 0.4-0.1s0.2-0.1 0.2-0.1h0.1l0.1 0.1v0.1 0.2 0.1 0.1 0.1l-0.1 0.1s-0.1 0.1-0.2 0.1-0.2 0.1-0.4 0.1-0.4 0.1-0.6 0.1-0.5 0.1-0.7 0.1c-0.4 0-0.8-0.1-1.2-0.2s-0.6-0.3-0.8-0.5-0.4-0.5-0.5-0.9-0.2-0.8-0.2-1.3 0.1-0.9 0.2-1.2 0.3-0.7 0.5-0.9c0.2-0.3 0.5-0.5 0.8-0.6s0.7-0.2 1.1-0.2 0.8 0.1 1.1 0.2 0.5 0.3 0.7 0.5 0.3 0.5 0.4 0.8 0.1 0.6 0.1 1v0.2zm-1-0.3c0-0.5-0.1-0.9-0.3-1.2s-0.6-0.4-1.1-0.4c-0.2 0-0.5 0-0.6 0.1-0.2 0.1-0.3 0.2-0.5 0.4-0.1 0.2-0.2 0.3-0.3 0.5s-0.1 0.4-0.1 0.6h2.9z"/>
   <path d="m215.8 333.6v0c0 0.1-0.1 0.1-0.1 0.1h-0.1-0.2-0.2-0.1s-0.1 0-0.1-0.1v-0.1-0.7c-0.3 0.3-0.6 0.5-0.9 0.7s-0.6 0.3-1 0.3-0.7-0.1-1-0.2c-0.3-0.2-0.5-0.4-0.7-0.6-0.2-0.3-0.3-0.6-0.4-0.9s-0.1-0.7-0.1-1.1c0-0.5 0-0.9 0.1-1.2 0.1-0.4 0.2-0.7 0.4-1s0.4-0.5 0.7-0.6 0.6-0.2 1-0.2c0.3 0 0.6 0.1 0.9 0.2s0.5 0.3 0.8 0.6v-3.1-0.1l0.1-0.1c0.1-0.1 0.1 0 0.2 0h0.2 0.2 0.1s0.1 0 0.1 0.1v0.1 7.9zm-1-3.7c-0.3-0.3-0.5-0.6-0.8-0.8-0.2-0.2-0.5-0.3-0.8-0.3s-0.5 0.1-0.6 0.2-0.3 0.3-0.4 0.5-0.2 0.4-0.2 0.7-0.1 0.5-0.1 0.8 0 0.5 0.1 0.8c0 0.3 0.1 0.5 0.2 0.7s0.2 0.4 0.4 0.5 0.4 0.2 0.6 0.2c0.1 0 0.3 0 0.4-0.1s0.2-0.1 0.4-0.2c0.1-0.1 0.3-0.2 0.4-0.3s0.3-0.3 0.4-0.5v-2.2z"/>
   <path d="m223.3 326.1v0.2 0.1 0.1h-0.1-0.1s-0.1 0-0.2-0.1c-0.1 0-0.1 0-0.2-0.1s-0.2 0-0.3 0-0.3 0-0.4 0.1c-0.1 0-0.2 0.1-0.3 0.2s-0.1 0.2-0.1 0.4v0.6 0.6h1.2 0.1l0.1 0.1v0.1 0.2c0 0.1 0 0.2-0.1 0.3 0 0.1-0.1 0.1-0.1 0.1h-1.2v4.7 0.1l-0.1 0.1c-0.1 0.1-0.1 0-0.2 0h-0.2-0.2-0.2s-0.1 0-0.1-0.1v-0.1-4.7h-0.8c-0.1 0-0.1 0-0.1-0.1v-0.3-0.2-0.1s0-0.1 0.1-0.1h0.1 0.8v-0.6c0-0.4 0-0.7 0.1-1s0.2-0.5 0.3-0.7 0.3-0.3 0.5-0.4 0.5-0.1 0.8-0.1h0.4c0.1 0 0.2 0.1 0.3 0.1s0.1 0.1 0.1 0.1 0 0.1 0.1 0.1v0.1 0.3z"/>
   <path d="m227.3 328.6v0.2 0.1 0.1h-0.1-0.1s-0.1 0-0.2-0.1-0.1 0-0.2-0.1h-0.2c-0.1 0-0.2 0-0.3 0.1-0.1 0-0.2 0.1-0.3 0.2s-0.2 0.2-0.3 0.4-0.2 0.3-0.4 0.6v3.5 0.1l-0.1 0.1c-0.1 0.1-0.1 0-0.1 0h-0.2-0.2-0.2c-0.1 0-0.1 0-0.1-0.1v-0.1-5.4-0.1l0.1-0.1h0.1 0.2 0.2 0.1s0.1 0 0.1 0.1v0.1 0.8c0.1-0.2 0.3-0.4 0.4-0.5s0.3-0.2 0.4-0.3 0.2-0.1 0.3-0.2h0.3 0.2 0.2c0.1 0 0.1 0 0.2 0.1 0.1 0 0.1 0 0.1 0.1v0.1 0.1 0.1s0.1 0 0.1 0.1z"/>
   <path d="m233.2 330.9c0 0.4-0.1 0.8-0.2 1.2s-0.3 0.7-0.5 1-0.5 0.5-0.9 0.6c-0.3 0.1-0.7 0.2-1.2 0.2-0.4 0-0.8-0.1-1.2-0.2-0.3-0.1-0.6-0.3-0.8-0.6s-0.4-0.6-0.5-0.9c-0.1-0.4-0.2-0.8-0.2-1.2s0.1-0.8 0.2-1.2 0.3-0.7 0.5-1 0.5-0.5 0.9-0.6c0.3-0.1 0.7-0.2 1.2-0.2 0.4 0 0.8 0.1 1.2 0.2 0.3 0.1 0.6 0.3 0.8 0.6s0.4 0.6 0.5 0.9c0.1 0.4 0.2 0.8 0.2 1.2zm-1.1 0.1c0-0.3 0-0.6-0.1-0.8-0.1-0.3-0.1-0.5-0.3-0.7-0.1-0.2-0.3-0.3-0.5-0.5s-0.5-0.2-0.8-0.2-0.5 0.1-0.8 0.2c-0.2 0.1-0.4 0.3-0.5 0.4s-0.2 0.4-0.3 0.7-0.1 0.5-0.1 0.8 0 0.6 0.1 0.8 0.1 0.5 0.3 0.7c0.1 0.2 0.3 0.3 0.5 0.5s0.5 0.2 0.8 0.2 0.5-0.1 0.8-0.2c0.2-0.1 0.4-0.2 0.5-0.4s0.2-0.4 0.3-0.7c0.1-0.2 0.1-0.5 0.1-0.8z"/>
   <path d="m242.6 333.6v0c0 0.1-0.1 0.1-0.1 0.1h-0.1-0.2-0.2-0.2c-0.1 0-0.1 0-0.1-0.1v-0.1-3.3c0-0.2 0-0.4-0.1-0.6 0-0.2-0.1-0.3-0.2-0.5l-0.3-0.3c-0.1-0.1-0.3-0.1-0.5-0.1s-0.5 0.1-0.7 0.3-0.5 0.4-0.8 0.8v3.7 0.1l-0.1 0.1c-0.1 0.1-0.1 0-0.2 0h-0.2-0.2-0.2c-0.1 0-0.1 0-0.1-0.1v-0.1-3.3c0-0.2 0-0.4-0.1-0.6 0-0.2-0.1-0.3-0.2-0.5l-0.3-0.3c-0.1-0.1-0.3-0.1-0.5-0.1s-0.5 0.1-0.7 0.3-0.5 0.4-0.8 0.8v3.7 0.1l-0.1 0.1c-0.1 0.1-0.1 0-0.1 0h-0.2-0.2-0.2c-0.1 0-0.1 0-0.1-0.1v-0.1-5.4-0.1l0.1-0.1h0.1 0.2 0.2 0.1s0.1 0 0.1 0.1v0.1 0.7c0.3-0.3 0.6-0.6 0.9-0.7 0.3-0.2 0.6-0.2 0.9-0.2 0.2 0 0.4 0 0.6 0.1s0.3 0.1 0.5 0.2c0.1 0.1 0.3 0.2 0.3 0.3 0.1 0.1 0.2 0.3 0.2 0.4 0.2-0.2 0.3-0.4 0.5-0.5s0.3-0.2 0.5-0.3 0.3-0.1 0.4-0.2c0.1 0 0.3-0.1 0.4-0.1 0.3 0 0.6 0.1 0.9 0.2s0.4 0.3 0.6 0.5c0.1 0.2 0.2 0.4 0.3 0.7s0.1 0.6 0.1 0.9v3.5z"/>
   <path d="m252.1 326.5v0.2 0.1s0 0.1-0.1 0.1h-0.1-2.2v6.7 0.1l-0.1 0.1h-0.2-0.2-0.2-0.2c-0.1 0-0.1 0-0.1-0.1v-0.1-6.6h-2.2-0.1l-0.1-0.1v-0.1-0.2-0.2-0.1s0-0.1 0.1-0.1h0.1 5.4 0.1l0.1 0.1v0.1 0.1z"/>
   <path d="m257 330.9c0 0.4-0.1 0.8-0.2 1.2s-0.3 0.7-0.5 1-0.5 0.5-0.9 0.6c-0.3 0.1-0.7 0.2-1.2 0.2-0.4 0-0.8-0.1-1.2-0.2-0.3-0.1-0.6-0.3-0.8-0.6s-0.4-0.6-0.5-0.9c-0.1-0.4-0.2-0.8-0.2-1.2s0.1-0.8 0.2-1.2 0.3-0.7 0.5-1 0.5-0.5 0.9-0.6c0.3-0.1 0.7-0.2 1.2-0.2 0.4 0 0.8 0.1 1.2 0.2 0.3 0.1 0.6 0.3 0.8 0.6s0.4 0.6 0.5 0.9c0.1 0.4 0.2 0.8 0.2 1.2zm-1.1 0.1c0-0.3 0-0.6-0.1-0.8-0.1-0.3-0.1-0.5-0.3-0.7-0.1-0.2-0.3-0.3-0.5-0.5s-0.5-0.2-0.8-0.2-0.5 0.1-0.8 0.2c-0.2 0.1-0.4 0.3-0.5 0.4s-0.2 0.4-0.3 0.7-0.1 0.5-0.1 0.8 0 0.6 0.1 0.8 0.1 0.5 0.3 0.7c0.1 0.2 0.3 0.3 0.5 0.5s0.5 0.2 0.8 0.2 0.5-0.1 0.8-0.2c0.2-0.1 0.4-0.2 0.5-0.4s0.2-0.4 0.3-0.7c0.1-0.2 0.1-0.5 0.1-0.8z"/>
   <path d="m263.4 330.9c0 0.4-0.1 0.8-0.2 1.2s-0.3 0.7-0.5 1-0.5 0.5-0.9 0.6c-0.3 0.1-0.7 0.2-1.2 0.2-0.4 0-0.8-0.1-1.2-0.2-0.3-0.1-0.6-0.3-0.8-0.6s-0.4-0.6-0.5-0.9c-0.1-0.4-0.2-0.8-0.2-1.2s0.1-0.8 0.2-1.2 0.3-0.7 0.5-1 0.5-0.5 0.9-0.6c0.3-0.1 0.7-0.2 1.2-0.2 0.4 0 0.8 0.1 1.2 0.2 0.3 0.1 0.6 0.3 0.8 0.6s0.4 0.6 0.5 0.9c0.1 0.4 0.2 0.8 0.2 1.2zm-1 0.1c0-0.3 0-0.6-0.1-0.8-0.1-0.3-0.1-0.5-0.3-0.7-0.1-0.2-0.3-0.3-0.5-0.5s-0.5-0.2-0.8-0.2-0.5 0.1-0.8 0.2c-0.2 0.1-0.4 0.3-0.5 0.4s-0.2 0.4-0.3 0.7-0.1 0.5-0.1 0.8 0 0.6 0.1 0.8 0.1 0.5 0.3 0.7c0.1 0.2 0.3 0.3 0.5 0.5s0.5 0.2 0.8 0.2 0.5-0.1 0.8-0.2c0.2-0.1 0.4-0.2 0.5-0.4s0.2-0.4 0.3-0.7c0-0.2 0.1-0.5 0.1-0.8z"/>
   <path d="m269.5 333.6v0c0 0.1-0.1 0.1-0.1 0.1h-0.1-0.2-0.2-0.1s-0.1 0-0.1-0.1v-0.1-3.1c0-0.3 0-0.6-0.1-0.7 0-0.2-0.1-0.3-0.2-0.5-0.1-0.1-0.2-0.2-0.4-0.3s-0.3-0.1-0.5-0.1-0.5 0.1-0.7 0.3-0.5 0.4-0.8 0.8v3.7 0.1l-0.1 0.1c-0.1 0.1-0.1 0-0.1 0h-0.2-0.2-0.2c-0.1 0-0.1 0-0.1-0.1v-0.1-5.4-0.1l0.1-0.1h0.1 0.2 0.2 0.1s0.1 0 0.1 0.1v0.1 0.7c0.3-0.3 0.6-0.6 0.9-0.7s0.6-0.2 0.9-0.2c0.4 0 0.7 0.1 0.9 0.2s0.4 0.3 0.6 0.5 0.3 0.4 0.3 0.7c0.1 0.3 0.1 0.6 0.1 1v3.2z"/>
   <path d="m274.7 333.4v0.2 0.1s0 0.1-0.1 0.1h-0.1-3.3c-0.1 0-0.2 0-0.2-0.1-0.1-0.1-0.1-0.1-0.1-0.3v-0.2-0.1-0.1s0-0.1 0.1-0.1c0 0 0.1-0.1 0.1-0.2l2.4-3.7h-2.3c-0.1 0-0.1 0-0.2-0.1 0-0.1-0.1-0.2-0.1-0.3v-0.2-0.1s0-0.1 0.1-0.1h0.1 3.1 0.1s0.1 0 0.1 0.1c0 0 0 0.1 0.1 0.1v0.2 0.2 0.2 0.1s0 0.1-0.1 0.1c0 0.1-0.1 0.1-0.1 0.2l-2.4 3.7h2.5 0.1l0.1 0.1v0.1c0.1-0.1 0.1 0 0.1 0.1z"/>
   <path d="m277.4 332.9v0.3c0 0.1 0 0.2-0.1 0.3 0 0.1-0.1 0.2-0.1 0.3s-0.1 0.2-0.2 0.3l-0.8 1.2s0 0.1-0.1 0.1c0 0-0.1 0-0.1 0.1h-0.1-0.2-0.2-0.1v-0.1-0.1l0.8-1.6v-0.8-0.3c0-0.1 0.1-0.1 0.1-0.1s0.1-0.1 0.2-0.1h0.3 0.3c0.1 0 0.1 0 0.2 0.1l0.1 0.1v0.3z"/>
   <path d="m285.9 333.7v0.1s-0.1 0-0.1 0.1-0.1 0-0.2 0h-0.2s-0.1 0-0.1-0.1v-0.1-0.5c-0.2 0.3-0.5 0.4-0.8 0.6-0.3 0.1-0.6 0.2-0.9 0.2s-0.5 0-0.8-0.1-0.4-0.2-0.6-0.3-0.3-0.3-0.4-0.5-0.1-0.4-0.1-0.7 0.1-0.6 0.2-0.8 0.3-0.4 0.5-0.6c0.2-0.1 0.5-0.3 0.8-0.3 0.3-0.1 0.7-0.1 1.1-0.1h0.7v-0.4c0-0.2 0-0.4-0.1-0.5 0-0.2-0.1-0.3-0.2-0.4s-0.2-0.2-0.4-0.2c-0.2-0.1-0.3-0.1-0.6-0.1-0.2 0-0.5 0-0.7 0.1s-0.4 0.1-0.5 0.2-0.3 0.1-0.4 0.2-0.2 0.1-0.2 0.1h-0.1l-0.1-0.1v-0.1-0.2-0.2c0-0.1 0-0.1 0.1-0.2s0.1-0.1 0.3-0.2c0.1-0.1 0.3-0.1 0.5-0.2s0.4-0.1 0.6-0.1 0.4-0.1 0.6-0.1c0.4 0 0.7 0 1 0.1s0.5 0.2 0.7 0.4 0.3 0.4 0.4 0.6c0.1 0.3 0.1 0.5 0.1 0.9v3.5zm-1-2.5h-0.8c-0.3 0-0.5 0-0.7 0.1-0.2 0-0.4 0.1-0.5 0.2l-0.3 0.3c-0.1 0.1-0.1 0.3-0.1 0.4 0 0.3 0.1 0.5 0.3 0.7s0.4 0.2 0.7 0.2 0.5-0.1 0.7-0.2 0.5-0.3 0.7-0.6v-1.1z"/>
   <path d="m293.8 332.2c0 0.3-0.1 0.5-0.2 0.7s-0.2 0.4-0.4 0.5-0.4 0.3-0.7 0.3c-0.3 0.1-0.5 0.1-0.9 0.1h-0.5c-0.2 0-0.3-0.1-0.5-0.1-0.1 0-0.3-0.1-0.3-0.1-0.1 0-0.2-0.1-0.2-0.1s-0.1-0.1-0.1-0.2v-0.3-0.2-0.1s0-0.1 0.1-0.1h0.1s0.1 0 0.2 0.1 0.2 0.1 0.3 0.2 0.3 0.1 0.4 0.2c0.2 0.1 0.4 0.1 0.6 0.1s0.3 0 0.5-0.1c0.1 0 0.3-0.1 0.4-0.2s0.2-0.2 0.2-0.3c0.1-0.1 0.1-0.2 0.1-0.4s0-0.3-0.1-0.4l-0.3-0.3c-0.1-0.1-0.3-0.1-0.4-0.2-0.2-0.1-0.3-0.1-0.5-0.2s-0.3-0.1-0.5-0.2-0.3-0.2-0.4-0.3-0.2-0.3-0.3-0.4c-0.1-0.2-0.1-0.4-0.1-0.6s0-0.4 0.1-0.6 0.2-0.4 0.4-0.5 0.4-0.3 0.6-0.3c0.2-0.1 0.5-0.1 0.9-0.1h0.4c0.1 0 0.3 0.1 0.4 0.1s0.2 0.1 0.3 0.1 0.1 0.1 0.2 0.1l0.1 0.1v0.1 0.1 0.2 0.2 0.1s0 0.1-0.1 0.1h-0.1s-0.1 0-0.2-0.1c-0.1 0-0.2-0.1-0.3-0.1s-0.2-0.1-0.4-0.1c-0.1 0-0.3-0.1-0.5-0.1s-0.3 0-0.4 0.1c-0.1 0-0.2 0.1-0.3 0.2s-0.1 0.2-0.2 0.2c0 0.1-0.1 0.2-0.1 0.3 0 0.2 0 0.3 0.1 0.4l0.3 0.3c0.1 0.1 0.3 0.2 0.4 0.2 0.2 0.1 0.3 0.1 0.5 0.2s0.3 0.1 0.5 0.2 0.3 0.2 0.4 0.3 0.2 0.3 0.3 0.4c0.2 0.1 0.2 0.3 0.2 0.5z"/>
   <path d="m300.2 330.9c0 0.4-0.1 0.8-0.2 1.2s-0.3 0.7-0.5 1-0.5 0.5-0.9 0.6c-0.3 0.1-0.7 0.2-1.2 0.2-0.4 0-0.8-0.1-1.2-0.2-0.3-0.1-0.6-0.3-0.8-0.6s-0.4-0.6-0.5-0.9c-0.1-0.4-0.2-0.8-0.2-1.2s0.1-0.8 0.2-1.2 0.3-0.7 0.5-1 0.5-0.5 0.9-0.6c0.3-0.1 0.7-0.2 1.2-0.2 0.4 0 0.8 0.1 1.2 0.2 0.3 0.1 0.6 0.3 0.8 0.6s0.4 0.6 0.5 0.9c0.2 0.4 0.2 0.8 0.2 1.2zm-1 0.1c0-0.3 0-0.6-0.1-0.8-0.1-0.3-0.1-0.5-0.3-0.7-0.1-0.2-0.3-0.3-0.5-0.5s-0.5-0.2-0.8-0.2-0.5 0.1-0.8 0.2c-0.2 0.1-0.4 0.3-0.5 0.4s-0.2 0.4-0.3 0.7-0.1 0.5-0.1 0.8 0 0.6 0.1 0.8 0.1 0.5 0.3 0.7c0.1 0.2 0.3 0.3 0.5 0.5s0.5 0.2 0.8 0.2 0.5-0.1 0.8-0.2c0.2-0.1 0.4-0.2 0.5-0.4s0.2-0.4 0.3-0.7c0.1-0.2 0.1-0.5 0.1-0.8z"/>
   <path d="m302.9 328.9v4.7 0.1l-0.1 0.1c-0.1 0.1-0.1 0-0.2 0h-0.2-0.2-0.2s-0.1 0-0.1-0.1v-0.1-4.7h-0.8c-0.1 0-0.1 0-0.1-0.1v-0.3-0.2-0.1s0-0.1 0.1-0.1h0.1 0.8v-0.6c0-0.4 0-0.7 0.1-1s0.2-0.5 0.3-0.7 0.3-0.3 0.5-0.4 0.5-0.1 0.8-0.1h0.4c0.1 0 0.2 0.1 0.3 0.1s0.1 0.1 0.1 0.1 0 0.1 0.1 0.1v0.1 0.2 0.2 0.1 0.1h-0.1-0.1s-0.1 0-0.1-0.1c-0.1 0-0.1 0-0.2-0.1h-0.3c-0.1 0-0.3 0-0.4 0.1-0.1 0-0.2 0.1-0.2 0.2-0.1 0.1-0.1 0.2-0.1 0.4v0.6 0.6h2.4v-1.3-0.1l0.1-0.1c0.1-0.1 0.1 0 0.1 0h0.2 0.2 0.1s0.1 0 0.1 0.1v0.1 1.3h1.4 0.1l0.1 0.1v0.1 0.2c0 0.1 0 0.2-0.1 0.3 0 0.1-0.1 0.1-0.1 0.1h-1.4v3c0 0.4 0.1 0.6 0.2 0.8s0.3 0.3 0.6 0.3h0.2c0.1 0 0.1 0 0.2-0.1 0.1 0 0.1 0 0.1-0.1h0.1 0.1v0.1 0.1 0.2 0.3c0 0.1 0 0.1-0.1 0.1l-0.1 0.1c-0.1 0-0.1 0-0.2 0.1h-0.3-0.3c-0.3 0-0.5 0-0.7-0.1s-0.4-0.2-0.5-0.3-0.2-0.3-0.3-0.6-0.1-0.5-0.1-0.8v-3.1h-2.3z"/>
   <path d="m316.7 328.3v0.1 0.1l-1.6 5.1s0 0.1-0.1 0.1c0 0-0.1 0-0.1 0.1s-0.1 0-0.2 0h-0.3-0.3-0.2s-0.1 0-0.1-0.1c0 0 0-0.1-0.1-0.1l-1.1-3.9v-0.1 0.1l-1 3.9s0 0.1-0.1 0.1c0 0-0.1 0-0.1 0.1s-0.1 0-0.2 0h-0.3-0.3-0.2c-0.1 0-0.1 0-0.1-0.1 0 0 0-0.1-0.1-0.1l-1.6-5.1v-0.1-0.1-0.1l0.1-0.1c0.1-0.1 0.1 0 0.2 0h0.2 0.3 0.2s0.1 0 0.1 0.1v0.1l1.3 4.4v0.1-0.1l1.2-4.4v-0.1l0.1-0.1h0.1 0.2 0.2 0.1s0.1 0 0.1 0.1v0.1l1.3 4.4v0.1-0.1l1.3-4.4v-0.1l0.1-0.1h0.2 0.3 0.2 0.1c0.1 0.1 0.2 0.1 0.2 0.2v0z"/>
   <path d="m321.8 333.7v0.1s-0.1 0-0.1 0.1-0.1 0-0.2 0h-0.2s-0.1 0-0.1-0.1v-0.1-0.5c-0.2 0.3-0.5 0.4-0.8 0.6-0.3 0.1-0.6 0.2-0.9 0.2s-0.5 0-0.8-0.1l-0.6-0.3c-0.2-0.1-0.3-0.3-0.4-0.5s-0.1-0.4-0.1-0.7 0.1-0.6 0.2-0.8 0.3-0.4 0.5-0.6 0.5-0.3 0.8-0.3c0.3-0.1 0.7-0.1 1.1-0.1h0.7v-0.4c0-0.2 0-0.4-0.1-0.5 0-0.2-0.1-0.3-0.2-0.4s-0.2-0.2-0.4-0.2c-0.2-0.1-0.3-0.1-0.6-0.1-0.2 0-0.5 0-0.7 0.1s-0.4 0.1-0.5 0.2-0.3 0.1-0.4 0.2-0.2 0.1-0.2 0.1h-0.1l-0.1-0.1v-0.1-0.2-0.2s0-0.1 0.1-0.2 0.1-0.1 0.3-0.2c0.1-0.1 0.3-0.1 0.5-0.2s0.4-0.1 0.6-0.1 0.4-0.1 0.6-0.1c0.4 0 0.7 0 1 0.1s0.5 0.2 0.7 0.4 0.3 0.4 0.4 0.6 0.1 0.5 0.1 0.9v3.5zm-1-2.5h-0.8c-0.3 0-0.5 0-0.7 0.1-0.2 0-0.4 0.1-0.5 0.2l-0.3 0.3c-0.1 0.1-0.1 0.3-0.1 0.4 0 0.3 0.1 0.5 0.3 0.7s0.4 0.2 0.7 0.2 0.5-0.1 0.7-0.2 0.5-0.3 0.7-0.6v-1.1z"/>
   <path d="m326.8 328.6v0.2 0.1 0.1h-0.1-0.1s-0.1 0-0.2-0.1-0.1 0-0.2-0.1h-0.2c-0.1 0-0.2 0-0.3 0.1-0.1 0-0.2 0.1-0.3 0.2s-0.2 0.2-0.3 0.4-0.2 0.3-0.4 0.6v3.5 0.1l-0.1 0.1h-0.1-0.2-0.2-0.2c-0.1 0-0.1 0-0.1-0.1v-0.1-5.4-0.1l0.1-0.1h0.1 0.2 0.2 0.1s0.1 0 0.1 0.1v0.1 0.8c0.1-0.2 0.3-0.4 0.4-0.5s0.3-0.2 0.4-0.3 0.2-0.1 0.3-0.2h0.3 0.2 0.2c0.1 0 0.1 0 0.2 0.1 0.1 0 0.1 0 0.1 0.1v0.1 0.1 0.1s0.1 0 0.1 0.1z"/>
   <path d="m332.3 330.7c0 0.2 0 0.3-0.1 0.3-0.1 0.1-0.2 0.1-0.3 0.1h-3.5c0 0.3 0 0.6 0.1 0.8l0.3 0.6c0.1 0.2 0.3 0.3 0.5 0.4s0.5 0.1 0.8 0.1 0.5 0 0.7-0.1c0.2 0 0.4-0.1 0.5-0.1s0.3-0.1 0.4-0.1 0.2-0.1 0.2-0.1h0.1l0.1 0.1v0.1 0.2 0.1 0.1 0.1l-0.1 0.1s-0.1 0.1-0.2 0.1-0.2 0.1-0.4 0.1-0.4 0.1-0.6 0.1-0.5 0.1-0.7 0.1c-0.4 0-0.8-0.1-1.2-0.2-0.3-0.1-0.6-0.3-0.8-0.5s-0.4-0.5-0.5-0.9-0.2-0.8-0.2-1.3 0.1-0.9 0.2-1.2 0.3-0.7 0.5-0.9c0.2-0.3 0.5-0.5 0.8-0.6s0.7-0.2 1.1-0.2 0.8 0.1 1.1 0.2 0.5 0.3 0.7 0.5 0.3 0.5 0.4 0.8 0.1 0.6 0.1 1v0.2zm-1-0.3c0-0.5-0.1-0.9-0.3-1.2s-0.6-0.4-1.1-0.4c-0.2 0-0.5 0-0.6 0.1-0.2 0.1-0.3 0.2-0.5 0.4-0.1 0.2-0.2 0.3-0.3 0.5s-0.1 0.4-0.1 0.6h2.9z"/>
   <path d="m341.5 330.9c0 0.4-0.1 0.8-0.2 1.2s-0.3 0.7-0.5 1-0.5 0.5-0.9 0.6c-0.3 0.1-0.7 0.2-1.2 0.2-0.4 0-0.8-0.1-1.2-0.2-0.3-0.1-0.6-0.3-0.8-0.6s-0.4-0.6-0.5-0.9-0.2-0.8-0.2-1.2 0.1-0.8 0.2-1.2 0.3-0.7 0.5-1 0.5-0.5 0.9-0.6c0.3-0.1 0.7-0.2 1.2-0.2 0.4 0 0.8 0.1 1.2 0.2 0.3 0.1 0.6 0.3 0.8 0.6s0.4 0.6 0.5 0.9 0.2 0.8 0.2 1.2zm-1 0.1c0-0.3 0-0.6-0.1-0.8-0.1-0.3-0.1-0.5-0.3-0.7-0.1-0.2-0.3-0.3-0.5-0.5-0.2-0.1-0.5-0.2-0.8-0.2s-0.5 0.1-0.8 0.2c-0.2 0.1-0.4 0.3-0.5 0.4-0.1 0.2-0.2 0.4-0.3 0.7s-0.1 0.5-0.1 0.8 0 0.6 0.1 0.8c0.1 0.3 0.1 0.5 0.3 0.7 0.1 0.2 0.3 0.3 0.5 0.5 0.2 0.1 0.5 0.2 0.8 0.2s0.5-0.1 0.8-0.2c0.2-0.1 0.4-0.2 0.5-0.4s0.2-0.4 0.3-0.7c0.1-0.2 0.1-0.5 0.1-0.8z"/>
   <path d="m346.1 328.6v0.2 0.1 0.1h-0.1-0.1s-0.1 0-0.2-0.1-0.1 0-0.2-0.1h-0.2c-0.1 0-0.2 0-0.3 0.1-0.1 0-0.2 0.1-0.3 0.2s-0.2 0.2-0.3 0.4-0.2 0.3-0.4 0.6v3.5 0.1l-0.1 0.1h-0.1-0.2-0.2-0.2c-0.1 0-0.1 0-0.1-0.1v-0.1-5.4-0.1l0.1-0.1h0.1 0.2 0.2 0.1s0.1 0 0.1 0.1v0.1 0.8c0.1-0.2 0.3-0.4 0.4-0.5s0.3-0.2 0.4-0.3 0.2-0.1 0.3-0.2h0.3 0.2 0.2c0.1 0 0.1 0 0.2 0.1 0.1 0 0.1 0 0.1 0.1v0.1 0.1 0.1s0.1 0 0.1 0.1z"/>
   <path d="m348.3 326.5c0 0.2 0 0.4-0.1 0.5s-0.2 0.1-0.5 0.1c-0.2 0-0.4 0-0.5-0.1s-0.1-0.2-0.1-0.5c0-0.2 0-0.4 0.1-0.5s0.2-0.1 0.5-0.1c0.2 0 0.4 0 0.5 0.1s0.1 0.2 0.1 0.5zm-0.1 7.1v0c0 0.1-0.1 0.1-0.1 0.1h-0.1-0.2-0.2-0.2c-0.1 0-0.1 0-0.1-0.1v-0.1-5.4-0.1l0.1-0.1c0.1-0.1 0.1 0 0.2 0h0.2 0.2 0.1s0.1 0 0.1 0.1v0.1 5.5z"/>
   <path d="m354.5 328.5c0 0.1 0 0.2-0.1 0.3 0 0.1-0.1 0.1-0.1 0.1h-0.8c0.1 0.1 0.2 0.3 0.3 0.5s0.1 0.4 0.1 0.5c0 0.3 0 0.6-0.1 0.8s-0.2 0.4-0.4 0.6-0.4 0.3-0.7 0.4-0.5 0.1-0.8 0.1c-0.2 0-0.4 0-0.6-0.1s-0.3-0.1-0.5-0.2c-0.1 0.1-0.1 0.2-0.2 0.2 0 0.1-0.1 0.2-0.1 0.3s0.1 0.3 0.2 0.3c0.1 0.1 0.3 0.1 0.5 0.1l1.4 0.1c0.3 0 0.5 0 0.7 0.1l0.6 0.3c0.2 0.1 0.3 0.3 0.4 0.4 0.1 0.2 0.1 0.4 0.1 0.6s-0.1 0.5-0.2 0.7-0.3 0.4-0.5 0.6-0.5 0.3-0.8 0.4-0.7 0.1-1.2 0.1c-0.4 0-0.8 0-1.1-0.1s-0.6-0.2-0.7-0.3c-0.2-0.1-0.3-0.3-0.4-0.5s-0.1-0.4-0.1-0.6v-0.4c0-0.1 0.1-0.2 0.1-0.4 0.1-0.1 0.1-0.2 0.2-0.3l0.3-0.3c-0.2-0.1-0.3-0.2-0.4-0.4s-0.1-0.3-0.1-0.5 0-0.5 0.1-0.6c0.1-0.2 0.2-0.4 0.4-0.5-0.1-0.1-0.2-0.3-0.3-0.5s-0.1-0.4-0.1-0.7 0.1-0.6 0.2-0.8 0.2-0.4 0.4-0.6 0.4-0.3 0.7-0.4 0.5-0.1 0.8-0.1h0.5c0.1 0 0.3 0 0.4 0.1h1.6c0.1 0 0.1 0 0.2 0.1 0.1 0.4 0.1 0.5 0.1 0.6zm-1 5.7c0-0.2-0.1-0.4-0.3-0.5s-0.4-0.2-0.8-0.2h-1.4l-0.3 0.3c-0.1 0.1-0.1 0.2-0.2 0.3 0 0.1-0.1 0.2-0.1 0.2v0.2c0 0.3 0.1 0.5 0.4 0.6s0.6 0.2 1.1 0.2c0.3 0 0.5 0 0.7-0.1s0.4-0.1 0.5-0.2l0.3-0.3c0.1-0.1 0.1-0.4 0.1-0.5zm-0.5-4.3c0-0.4-0.1-0.7-0.3-0.9s-0.5-0.3-0.9-0.3c-0.2 0-0.4 0-0.5 0.1s-0.3 0.2-0.4 0.3-0.2 0.2-0.2 0.4c0 0.1-0.1 0.3-0.1 0.5 0 0.4 0.1 0.6 0.3 0.8s0.5 0.3 0.8 0.3c0.2 0 0.4 0 0.5-0.1s0.3-0.1 0.4-0.3 0.2-0.2 0.2-0.4c0.2-0.1 0.2-0.2 0.2-0.4z"/>
   <path d="m356.9 326.5c0 0.2 0 0.4-0.1 0.5s-0.2 0.1-0.5 0.1c-0.2 0-0.4 0-0.5-0.1s-0.1-0.2-0.1-0.5c0-0.2 0-0.4 0.1-0.5s0.2-0.1 0.5-0.1c0.2 0 0.4 0 0.5 0.1 0 0.1 0.1 0.2 0.1 0.5zm-0.1 7.1v0c0 0.1-0.1 0.1-0.1 0.1h-0.1-0.2-0.2-0.2c-0.1 0-0.1 0-0.1-0.1v-0.1-5.4-0.1l0.1-0.1c0.1-0.1 0.1 0 0.2 0h0.2 0.2 0.1s0.1 0 0.1 0.1v0.1 5.5z"/>
   <path d="m363.2 333.6v0c0 0.1-0.1 0.1-0.1 0.1h-0.1-0.2-0.2-0.1s-0.1 0-0.1-0.1v-0.1-3.1c0-0.3 0-0.6-0.1-0.7 0-0.2-0.1-0.3-0.2-0.5-0.1-0.1-0.2-0.2-0.4-0.3-0.1-0.1-0.3-0.1-0.5-0.1s-0.5 0.1-0.7 0.3-0.5 0.4-0.8 0.8v3.7 0.1l-0.1 0.1h-0.1-0.2-0.2-0.2c-0.1 0-0.1 0-0.1-0.1v-0.1-5.4-0.1l0.1-0.1h0.1 0.2 0.2 0.1s0.1 0 0.1 0.1v0.1 0.7c0.3-0.3 0.6-0.6 0.9-0.7s0.6-0.2 0.9-0.2c0.4 0 0.7 0.1 0.9 0.2s0.4 0.3 0.6 0.5 0.3 0.4 0.3 0.7c0.1 0.3 0.1 0.6 0.1 1v3.2z"/>
   <path d="m369 333.7v0.1s-0.1 0-0.1 0.1-0.1 0-0.2 0h-0.2s-0.1 0-0.1-0.1v-0.1-0.5c-0.2 0.3-0.5 0.4-0.8 0.6-0.3 0.1-0.6 0.2-0.9 0.2s-0.5 0-0.8-0.1l-0.6-0.3c-0.2-0.1-0.3-0.3-0.4-0.5s-0.1-0.4-0.1-0.7 0.1-0.6 0.2-0.8 0.3-0.4 0.5-0.6 0.5-0.3 0.8-0.3c0.3-0.1 0.7-0.1 1.1-0.1h0.7v-0.4c0-0.2 0-0.4-0.1-0.5 0-0.2-0.1-0.3-0.2-0.4s-0.2-0.2-0.4-0.2c-0.2-0.1-0.3-0.1-0.6-0.1-0.2 0-0.5 0-0.7 0.1s-0.4 0.1-0.5 0.2-0.3 0.1-0.4 0.2-0.2 0.1-0.2 0.1h-0.1l-0.1-0.1v-0.1-0.2-0.2s0-0.1 0.1-0.2 0.1-0.1 0.3-0.2c0.1-0.1 0.3-0.1 0.5-0.2s0.4-0.1 0.6-0.1 0.4-0.1 0.6-0.1c0.4 0 0.7 0 1 0.1s0.5 0.2 0.7 0.4 0.3 0.4 0.4 0.6 0.1 0.5 0.1 0.9v3.5zm-1-2.5h-0.8c-0.3 0-0.5 0-0.7 0.1-0.2 0-0.4 0.1-0.5 0.2l-0.3 0.3c-0.1 0.1-0.1 0.3-0.1 0.4 0 0.3 0.1 0.5 0.3 0.7s0.4 0.2 0.7 0.2 0.5-0.1 0.7-0.2 0.5-0.3 0.7-0.6v-1.1z"/>
   <path d="m371.8 333.6v0c0 0.1-0.1 0.1-0.1 0.1h-0.1-0.2-0.2-0.2c-0.1 0-0.1 0-0.1-0.1v-0.1-8-0.1l0.1-0.1h0.2 0.2 0.2 0.1s0.1 0 0.1 0.1v0.1 8.1z"/>
   <path d="m374.6 333.6v0c0 0.1-0.1 0.1-0.1 0.1h-0.1-0.2-0.2-0.2c-0.1 0-0.1 0-0.1-0.1v-0.1-8-0.1l0.1-0.1h0.2 0.2 0.2 0.1s0.1 0 0.1 0.1v0.1 8.1z"/>
   <path d="m378.9 333.8-0.7 2c0 0.1-0.1 0.1-0.2 0.1h-0.4-0.3c-0.1 0-0.1 0-0.1-0.1l-0.1-0.1v-0.1l0.7-1.9s-0.1 0-0.1-0.1l-0.1-0.1-1.9-5.1v-0.2-0.1s0.1 0 0.2-0.1 0.2 0 0.3 0h0.3 0.2c0.1 0 0.1 0 0.1 0.1 0 0 0 0.1 0.1 0.1l1.5 4.3 1.5-4.3c0-0.1 0.1-0.1 0.1-0.1h0.2 0.3 0.3c0.1 0 0.1 0 0.2 0.1l0.1 0.1v0.2l-2.2 5.3z"/>
   <path d="m388.6 332.8v0.2 0.1 0.1s0 0.1-0.1 0.1-0.1 0.1-0.3 0.2c-0.1 0.1-0.3 0.1-0.4 0.2s-0.3 0.1-0.5 0.1-0.4 0.1-0.5 0.1c-0.4 0-0.7-0.1-1-0.2s-0.5-0.3-0.7-0.6c-0.2-0.2-0.4-0.5-0.5-0.9s-0.2-0.8-0.2-1.2c0-0.5 0.1-1 0.2-1.4s0.3-0.7 0.5-0.9 0.5-0.4 0.8-0.5 0.6-0.2 1-0.2h0.5c0.2 0 0.3 0.1 0.4 0.1s0.3 0.1 0.4 0.2 0.2 0.1 0.2 0.2 0.1 0.1 0.1 0.1v0.1 0.1 0.2c0 0.2 0 0.3-0.1 0.3 0 0.1-0.1 0.1-0.1 0.1-0.1 0-0.1 0-0.2-0.1s-0.2-0.1-0.3-0.2-0.3-0.2-0.4-0.2-0.4-0.1-0.6-0.1c-0.5 0-0.8 0.2-1.1 0.5-0.3 0.4-0.4 0.9-0.4 1.6 0 0.3 0 0.6 0.1 0.9s0.2 0.5 0.3 0.7 0.3 0.3 0.5 0.4 0.4 0.1 0.6 0.1 0.4 0 0.6-0.1 0.3-0.2 0.4-0.2c0.1-0.1 0.2-0.2 0.3-0.2 0.1-0.1 0.2-0.1 0.2-0.1h0.1l0.1 0.1v0.1l0.1 0.2z"/>
   <path d="m393 328.6v0.2 0.1 0.1h-0.1-0.1s-0.1 0-0.2-0.1-0.1 0-0.2-0.1h-0.2c-0.1 0-0.2 0-0.3 0.1-0.1 0-0.2 0.1-0.3 0.2s-0.2 0.2-0.3 0.4-0.2 0.3-0.4 0.6v3.5 0.1l-0.1 0.1h-0.1-0.2-0.2-0.2c-0.1 0-0.1 0-0.1-0.1v-0.1-5.4-0.1l0.1-0.1h0.1 0.2 0.2 0.1s0.1 0 0.1 0.1v0.1 0.8c0.1-0.2 0.3-0.4 0.4-0.5s0.3-0.2 0.4-0.3 0.2-0.1 0.3-0.2h0.3 0.2 0.2c0.1 0 0.1 0 0.2 0.1 0.1 0 0.1 0 0.1 0.1v0.1 0.1 0.1s0.1 0 0.1 0.1z"/>
   <path d="m398.5 330.7c0 0.2 0 0.3-0.1 0.3-0.1 0.1-0.2 0.1-0.3 0.1h-3.5c0 0.3 0 0.6 0.1 0.8l0.3 0.6c0.1 0.2 0.3 0.3 0.5 0.4s0.5 0.1 0.8 0.1 0.5 0 0.7-0.1c0.2 0 0.4-0.1 0.5-0.1s0.3-0.1 0.4-0.1 0.2-0.1 0.2-0.1h0.1l0.1 0.1v0.1 0.2 0.1 0.1 0.1l-0.1 0.1s-0.1 0.1-0.2 0.1-0.2 0.1-0.4 0.1-0.4 0.1-0.6 0.1-0.5 0.1-0.7 0.1c-0.4 0-0.8-0.1-1.2-0.2-0.3-0.1-0.6-0.3-0.8-0.5s-0.4-0.5-0.5-0.9-0.2-0.8-0.2-1.3 0.1-0.9 0.2-1.2 0.3-0.7 0.5-0.9c0.2-0.3 0.5-0.5 0.8-0.6s0.7-0.2 1.1-0.2 0.8 0.1 1.1 0.2 0.5 0.3 0.7 0.5 0.3 0.5 0.4 0.8 0.1 0.6 0.1 1v0.2zm-1-0.3c0-0.5-0.1-0.9-0.3-1.2s-0.6-0.4-1.1-0.4c-0.2 0-0.5 0-0.6 0.1-0.2 0.1-0.3 0.2-0.5 0.4-0.1 0.2-0.2 0.3-0.3 0.5s-0.1 0.4-0.1 0.6h2.9z"/>
   <path d="m404.1 333.7v0.1s-0.1 0-0.1 0.1-0.1 0-0.2 0h-0.2s-0.1 0-0.1-0.1v-0.1-0.5c-0.2 0.3-0.5 0.4-0.8 0.6-0.3 0.1-0.6 0.2-0.9 0.2s-0.5 0-0.8-0.1l-0.6-0.3c-0.2-0.1-0.3-0.3-0.4-0.5s-0.1-0.4-0.1-0.7 0.1-0.6 0.2-0.8 0.3-0.4 0.5-0.6 0.5-0.3 0.8-0.3c0.3-0.1 0.7-0.1 1.1-0.1h0.7v-0.4c0-0.2 0-0.4-0.1-0.5 0-0.2-0.1-0.3-0.2-0.4s-0.2-0.2-0.4-0.2c-0.2-0.1-0.3-0.1-0.6-0.1-0.2 0-0.5 0-0.7 0.1s-0.4 0.1-0.5 0.2-0.3 0.1-0.4 0.2-0.2 0.1-0.2 0.1h-0.1l-0.1-0.1v-0.1-0.2-0.2s0-0.1 0.1-0.2 0.1-0.1 0.3-0.2c0.1-0.1 0.3-0.1 0.5-0.2s0.4-0.1 0.6-0.1 0.4-0.1 0.6-0.1c0.4 0 0.7 0 1 0.1s0.5 0.2 0.7 0.4 0.3 0.4 0.4 0.6 0.1 0.5 0.1 0.9v3.5zm-1-2.5h-0.8c-0.3 0-0.5 0-0.7 0.1-0.2 0-0.4 0.1-0.5 0.2l-0.3 0.3c-0.1 0.1-0.1 0.3-0.1 0.4 0 0.3 0.1 0.5 0.3 0.7s0.4 0.2 0.7 0.2 0.5-0.1 0.7-0.2 0.5-0.3 0.7-0.6v-1.1z"/>
   <path d="m408.5 333.3v0.3c0 0.1 0 0.1-0.1 0.1l-0.1 0.1c-0.1 0-0.1 0-0.2 0.1h-0.3-0.3c-0.3 0-0.5 0-0.7-0.1s-0.4-0.2-0.5-0.3-0.2-0.3-0.3-0.6-0.1-0.5-0.1-0.8v-3.1h-0.8c-0.1 0-0.1 0-0.1-0.1s-0.1-0.2-0.1-0.3v-0.2-0.1s0-0.1 0.1-0.1h0.1 0.7v-1.3-0.1l0.1-0.1h0.2 0.2 0.2 0.1s0.1 0 0.1 0.1v0.1 1.3h1.4 0.1l0.1 0.1v0.1 0.2c0 0.1 0 0.2-0.1 0.3 0 0.1-0.1 0.1-0.1 0.1h-1.1v3c0 0.4 0.1 0.6 0.2 0.8s0.3 0.3 0.6 0.3h0.2c0.1 0 0.1 0 0.2-0.1 0.1 0 0.1 0 0.1-0.1h0.1 0.1v0.1 0.1 0.2z"/>
   <path d="m414.3 330.7c0 0.2 0 0.3-0.1 0.3-0.1 0.1-0.2 0.1-0.3 0.1h-3.5c0 0.3 0 0.6 0.1 0.8l0.3 0.6c0.1 0.2 0.3 0.3 0.5 0.4s0.5 0.1 0.8 0.1 0.5 0 0.7-0.1c0.2 0 0.4-0.1 0.5-0.1s0.3-0.1 0.4-0.1 0.2-0.1 0.2-0.1h0.1l0.1 0.1v0.1 0.2 0.1 0.1 0.1l-0.1 0.1s-0.1 0.1-0.2 0.1-0.2 0.1-0.4 0.1-0.4 0.1-0.6 0.1-0.5 0.1-0.7 0.1c-0.4 0-0.8-0.1-1.2-0.2-0.3-0.1-0.6-0.3-0.8-0.5s-0.4-0.5-0.5-0.9-0.2-0.8-0.2-1.3 0.1-0.9 0.2-1.2 0.3-0.7 0.5-0.9c0.2-0.3 0.5-0.5 0.8-0.6s0.7-0.2 1.1-0.2 0.8 0.1 1.1 0.2 0.5 0.3 0.7 0.5 0.3 0.5 0.4 0.8 0.1 0.6 0.1 1v0.2zm-1-0.3c0-0.5-0.1-0.9-0.3-1.2s-0.6-0.4-1.1-0.4c-0.2 0-0.5 0-0.6 0.1-0.2 0.1-0.3 0.2-0.5 0.4-0.1 0.2-0.2 0.3-0.3 0.5s-0.1 0.4-0.1 0.6h2.9z"/>
   <path d="m420.4 333.6v0c0 0.1-0.1 0.1-0.1 0.1h-0.1-0.2-0.2-0.1s-0.1 0-0.1-0.1v-0.1-0.7c-0.3 0.3-0.6 0.5-0.9 0.7s-0.6 0.3-1 0.3-0.7-0.1-1-0.2c-0.3-0.2-0.5-0.4-0.7-0.6-0.2-0.3-0.3-0.6-0.4-0.9-0.1-0.4-0.1-0.7-0.1-1.1 0-0.5 0-0.9 0.1-1.2 0.1-0.4 0.2-0.7 0.4-1s0.4-0.5 0.7-0.6 0.6-0.2 1-0.2c0.3 0 0.6 0.1 0.9 0.2s0.5 0.3 0.8 0.6v-3.1-0.1l0.1-0.1h0.2 0.2 0.2 0.1s0.1 0 0.1 0.1v0.1 7.9zm-1-3.7c-0.3-0.3-0.5-0.6-0.8-0.8-0.2-0.2-0.5-0.3-0.8-0.3s-0.5 0.1-0.6 0.2-0.3 0.3-0.4 0.5-0.2 0.4-0.2 0.7-0.1 0.5-0.1 0.8 0 0.5 0.1 0.8c0 0.3 0.1 0.5 0.2 0.7s0.2 0.4 0.4 0.5 0.4 0.2 0.6 0.2c0.1 0 0.3 0 0.4-0.1s0.2-0.1 0.4-0.2c0.1-0.1 0.3-0.2 0.4-0.3s0.3-0.3 0.4-0.5v-2.2z"/>
   <path d="m429.9 330.9c0 0.5-0.1 0.9-0.2 1.3s-0.3 0.7-0.4 1c-0.2 0.3-0.4 0.5-0.7 0.6s-0.6 0.2-1 0.2c-0.2 0-0.3 0-0.5-0.1-0.1 0-0.3-0.1-0.4-0.2s-0.3-0.2-0.4-0.3l-0.4-0.4v0.7 0.1l-0.1 0.1h-0.1-0.2-0.2-0.1s-0.1 0-0.1-0.1v-0.1-8-0.1l0.1-0.1h0.2 0.2 0.2 0.1s0.1 0 0.1 0.1v0.1 3.2c0.2-0.2 0.3-0.3 0.5-0.4 0.1-0.1 0.3-0.2 0.4-0.3s0.3-0.1 0.4-0.2h0.5c0.4 0 0.7 0.1 1 0.2 0.3 0.2 0.5 0.4 0.7 0.6 0.2 0.3 0.3 0.6 0.4 0.9s0 0.8 0 1.2zm-1 0.1c0-0.3 0-0.5-0.1-0.8 0-0.3-0.1-0.5-0.2-0.7s-0.2-0.4-0.4-0.5-0.4-0.2-0.6-0.2c-0.1 0-0.3 0-0.4 0.1-0.1 0-0.3 0.1-0.4 0.2s-0.3 0.2-0.4 0.3-0.3 0.3-0.4 0.5v2.1c0.3 0.3 0.5 0.6 0.8 0.8 0.2 0.2 0.5 0.3 0.8 0.3 0.2 0 0.5-0.1 0.6-0.2s0.3-0.3 0.4-0.5 0.2-0.4 0.2-0.7 0.1-0.4 0.1-0.7z"/>
   <path d="m433.7 333.8-0.7 2c0 0.1-0.1 0.1-0.2 0.1h-0.4-0.3c-0.1 0-0.1 0-0.1-0.1l-0.1-0.1v-0.1l0.7-1.9s-0.1 0-0.1-0.1l-0.1-0.1-1.9-5.1v-0.2-0.1s0.1 0 0.2-0.1 0.2 0 0.3 0h0.3 0.2c0.1 0 0.1 0 0.1 0.1 0 0 0 0.1 0.1 0.1l1.5 4.3 1.5-4.3c0-0.1 0.1-0.1 0.1-0.1h0.2 0.3 0.3c0.1 0 0.1 0 0.2 0.1l0.1 0.1v0.2l-2.2 5.3z"/>
   <path d="m445.6 329.8c0 0.7-0.1 1.3-0.3 1.7-0.2 0.5-0.4 0.9-0.7 1.2s-0.7 0.6-1.2 0.7-1 0.2-1.7 0.2h-1.6c-0.1 0-0.2 0-0.3-0.1s-0.1-0.2-0.1-0.3v-6.9c0-0.2 0-0.3 0.1-0.3 0.1-0.1 0.2-0.1 0.3-0.1h1.7c0.7 0 1.2 0.1 1.7 0.3s0.8 0.4 1.2 0.7c0.3 0.3 0.5 0.7 0.7 1.2 0.1 0.6 0.2 1.1 0.2 1.7zm-1.1 0.1c0-0.4-0.1-0.8-0.2-1.2s-0.3-0.7-0.5-0.9c-0.2-0.3-0.5-0.5-0.8-0.6s-0.8-0.2-1.3-0.2h-1v6h1.1c0.5 0 0.9-0.1 1.2-0.2s0.6-0.3 0.8-0.6 0.4-0.6 0.5-1 0.2-0.8 0.2-1.3z"/>
   <path d="m448.2 326.5c0 0.2 0 0.4-0.1 0.5s-0.2 0.1-0.5 0.1c-0.2 0-0.4 0-0.5-0.1s-0.1-0.2-0.1-0.5c0-0.2 0-0.4 0.1-0.5s0.2-0.1 0.5-0.1c0.2 0 0.4 0 0.5 0.1 0 0.1 0.1 0.2 0.1 0.5zm-0.1 7.1v0c0 0.1-0.1 0.1-0.1 0.1h-0.1-0.2-0.2-0.2c-0.1 0-0.1 0-0.1-0.1v-0.1-5.4-0.1l0.1-0.1c0.1-0.1 0.1 0 0.2 0h0.2 0.2 0.1s0.1 0 0.1 0.1v0.1 5.5z"/>
   <path d="m454.4 328.5c0 0.1 0 0.2-0.1 0.3 0 0.1-0.1 0.1-0.1 0.1h-0.8c0.1 0.1 0.2 0.3 0.3 0.5s0.1 0.4 0.1 0.5c0 0.3 0 0.6-0.1 0.8s-0.2 0.4-0.4 0.6-0.4 0.3-0.7 0.4-0.5 0.1-0.8 0.1c-0.2 0-0.4 0-0.6-0.1s-0.3-0.1-0.5-0.2c-0.1 0.1-0.1 0.2-0.2 0.2 0 0.1-0.1 0.2-0.1 0.3s0.1 0.3 0.2 0.3c0.1 0.1 0.3 0.1 0.5 0.1l1.4 0.1c0.3 0 0.5 0 0.7 0.1l0.6 0.3c0.2 0.1 0.3 0.3 0.4 0.4 0.1 0.2 0.1 0.4 0.1 0.6s-0.1 0.5-0.2 0.7-0.3 0.4-0.5 0.6-0.5 0.3-0.8 0.4-0.7 0.1-1.2 0.1c-0.4 0-0.8 0-1.1-0.1s-0.6-0.2-0.7-0.3c-0.2-0.1-0.3-0.3-0.4-0.5s-0.1-0.4-0.1-0.6v-0.4c0-0.1 0.1-0.2 0.1-0.4 0.1-0.1 0.1-0.2 0.2-0.3l0.3-0.3c-0.2-0.1-0.3-0.2-0.4-0.4s-0.1-0.3-0.1-0.5 0-0.5 0.1-0.6c0.1-0.2 0.2-0.4 0.4-0.5-0.1-0.1-0.2-0.3-0.3-0.5s-0.1-0.4-0.1-0.7 0.1-0.6 0.2-0.8 0.2-0.4 0.4-0.6 0.4-0.3 0.7-0.4 0.5-0.1 0.8-0.1h0.5c0.1 0 0.3 0 0.4 0.1h1.6c0.1 0 0.1 0 0.2 0.1 0.1 0.4 0.1 0.5 0.1 0.6zm-1.1 5.7c0-0.2-0.1-0.4-0.3-0.5s-0.4-0.2-0.8-0.2h-1.4l-0.3 0.3c-0.1 0.1-0.1 0.2-0.2 0.3 0 0.1-0.1 0.2-0.1 0.2v0.2c0 0.3 0.1 0.5 0.4 0.6s0.6 0.2 1.1 0.2c0.3 0 0.5 0 0.7-0.1s0.4-0.1 0.5-0.2l0.3-0.3c0.1-0.1 0.1-0.4 0.1-0.5zm-0.5-4.3c0-0.4-0.1-0.7-0.3-0.9s-0.5-0.3-0.9-0.3c-0.2 0-0.4 0-0.5 0.1s-0.3 0.2-0.4 0.3-0.2 0.2-0.2 0.4c0 0.1-0.1 0.3-0.1 0.5 0 0.4 0.1 0.6 0.3 0.8s0.5 0.3 0.8 0.3c0.2 0 0.4 0 0.5-0.1s0.3-0.1 0.4-0.3 0.2-0.2 0.2-0.4c0.2-0.1 0.2-0.2 0.2-0.4z"/>
   <path d="m456.7 326.5c0 0.2 0 0.4-0.1 0.5s-0.2 0.1-0.5 0.1c-0.2 0-0.4 0-0.5-0.1s-0.1-0.2-0.1-0.5c0-0.2 0-0.4 0.1-0.5s0.2-0.1 0.5-0.1c0.2 0 0.4 0 0.5 0.1s0.1 0.2 0.1 0.5zm-0.1 7.1v0c0 0.1-0.1 0.1-0.1 0.1h-0.1-0.2-0.2-0.2c-0.1 0-0.1 0-0.1-0.1v-0.1-5.4-0.1l0.1-0.1c0.1-0.1 0.1 0 0.2 0h0.2 0.2 0.1s0.1 0 0.1 0.1v0.1 5.5z"/>
   <path d="m461.2 333.3v0.3c0 0.1 0 0.1-0.1 0.1l-0.1 0.1c-0.1 0-0.1 0-0.2 0.1h-0.3-0.3c-0.3 0-0.5 0-0.7-0.1s-0.4-0.2-0.5-0.3-0.2-0.3-0.3-0.6-0.1-0.5-0.1-0.8v-3.1h-0.8c-0.1 0-0.1 0-0.1-0.1s-0.1-0.2-0.1-0.3v-0.2-0.1s0-0.1 0.1-0.1h0.1 0.7v-1.3-0.1l0.1-0.1h0.2 0.2 0.2 0.1s0.1 0 0.1 0.1v0.1 1.3h1.4 0.1l0.1 0.1v0.1 0.2c0 0.1 0 0.2-0.1 0.3 0 0.1-0.1 0.1-0.1 0.1h-1.4v3c0 0.4 0.1 0.6 0.2 0.8s0.3 0.3 0.6 0.3h0.2c0.1 0 0.1 0 0.2-0.1 0.1 0 0.1 0 0.1-0.1h0.1 0.1v0.1 0.1s0.3 0.1 0.3 0.2z"/>
   <path d="m466.4 333.7v0.1s-0.1 0-0.1 0.1-0.1 0-0.2 0h-0.2s-0.1 0-0.1-0.1v-0.1-0.5c-0.2 0.3-0.5 0.4-0.8 0.6-0.3 0.1-0.6 0.2-0.9 0.2s-0.5 0-0.8-0.1l-0.6-0.3c-0.2-0.1-0.3-0.3-0.4-0.5s-0.1-0.4-0.1-0.7 0.1-0.6 0.2-0.8 0.3-0.4 0.5-0.6 0.5-0.3 0.8-0.3c0.3-0.1 0.7-0.1 1.1-0.1h0.7v-0.4c0-0.2 0-0.4-0.1-0.5 0-0.2-0.1-0.3-0.2-0.4s-0.2-0.2-0.4-0.2c-0.2-0.1-0.3-0.1-0.6-0.1-0.2 0-0.5 0-0.7 0.1s-0.4 0.1-0.5 0.2-0.3 0.1-0.4 0.2-0.2 0.1-0.2 0.1h-0.1l-0.1-0.1v-0.1-0.2-0.2s0-0.1 0.1-0.2 0.1-0.1 0.3-0.2c0.1-0.1 0.3-0.1 0.5-0.2s0.4-0.1 0.6-0.1 0.4-0.1 0.6-0.1c0.4 0 0.7 0 1 0.1s0.5 0.2 0.7 0.4 0.3 0.4 0.4 0.6 0.1 0.5 0.1 0.9v3.5zm-1-2.5h-0.8c-0.3 0-0.5 0-0.7 0.1-0.2 0-0.4 0.1-0.5 0.2l-0.3 0.3c-0.1 0.1-0.1 0.3-0.1 0.4 0 0.3 0.1 0.5 0.3 0.7s0.4 0.2 0.7 0.2 0.5-0.1 0.7-0.2 0.5-0.3 0.7-0.6v-1.1z"/>
   <path d="m469.2 333.6v0c0 0.1-0.1 0.1-0.1 0.1h-0.1-0.2-0.2-0.2c-0.1 0-0.1 0-0.1-0.1v-0.1-8-0.1l0.1-0.1h0.2 0.2 0.2 0.1s0.1 0 0.1 0.1v0.1 8.1z"/>
   <path d="m477 333.6s0 0.1-0.1 0.1c0 0-0.1 0-0.1 0.1h-0.2-0.3-0.2-0.2-0.1-0.1l-0.1-0.1v-0.1l-2.5-7.2c0-0.1 0-0.2-0.1-0.2s0-0.1 0.1-0.1c0 0 0.1 0 0.2-0.1h0.3 0.3 0.2s0.1 0 0.1 0.1c0 0 0 0.1 0.1 0.1l2.2 6.5 2.2-6.5v-0.1l0.1-0.1h0.2 0.3 0.3c0.1 0 0.1 0 0.1 0.1v0.1s0 0.1-0.1 0.2l-2.6 7.2z"/>
   <path d="m481.8 326.5c0 0.2 0 0.4-0.1 0.5s-0.2 0.1-0.5 0.1c-0.2 0-0.4 0-0.5-0.1s-0.1-0.2-0.1-0.5c0-0.2 0-0.4 0.1-0.5s0.2-0.1 0.5-0.1c0.2 0 0.4 0 0.5 0.1 0 0.1 0.1 0.2 0.1 0.5zm-0.1 7.1v0c0 0.1-0.1 0.1-0.1 0.1h-0.1-0.2-0.2-0.2c-0.1 0-0.1 0-0.1-0.1v-0.1-5.4-0.1l0.1-0.1c0.1-0.1 0.1 0 0.2 0h0.2 0.2 0.1s0.1 0 0.1 0.1v0.1 5.5z"/>
   <path d="m488.1 333.6v0c0 0.1-0.1 0.1-0.1 0.1h-0.1-0.2-0.2-0.1s-0.1 0-0.1-0.1v-0.1-0.7c-0.3 0.3-0.6 0.5-0.9 0.7s-0.6 0.3-1 0.3-0.7-0.1-1-0.2c-0.3-0.2-0.5-0.4-0.7-0.6-0.2-0.3-0.3-0.6-0.4-0.9-0.1-0.4-0.1-0.7-0.1-1.1 0-0.5 0-0.9 0.1-1.2 0.1-0.4 0.2-0.7 0.4-1s0.4-0.5 0.7-0.6 0.6-0.2 1-0.2c0.3 0 0.6 0.1 0.9 0.2s0.5 0.3 0.8 0.6v-3.1-0.1l0.1-0.1h0.2 0.2 0.2 0.1s0.1 0 0.1 0.1v0.1 7.9zm-1-3.7c-0.3-0.3-0.5-0.6-0.8-0.8-0.2-0.2-0.5-0.3-0.8-0.3s-0.5 0.1-0.6 0.2-0.3 0.3-0.4 0.5-0.2 0.4-0.2 0.7-0.1 0.5-0.1 0.8 0 0.5 0.1 0.8c0 0.3 0.1 0.5 0.2 0.7s0.2 0.4 0.4 0.5 0.4 0.2 0.6 0.2c0.1 0 0.3 0 0.4-0.1s0.2-0.1 0.4-0.2c0.1-0.1 0.3-0.2 0.4-0.3s0.3-0.3 0.4-0.5v-2.2z"/>
   <path d="m494.5 330.7c0 0.2 0 0.3-0.1 0.3-0.1 0.1-0.2 0.1-0.3 0.1h-3.5c0 0.3 0 0.6 0.1 0.8l0.3 0.6c0.1 0.2 0.3 0.3 0.5 0.4s0.5 0.1 0.8 0.1 0.5 0 0.7-0.1c0.2 0 0.4-0.1 0.5-0.1s0.3-0.1 0.4-0.1 0.2-0.1 0.2-0.1h0.1l0.1 0.1v0.1 0.2 0.1 0.1 0.1l-0.1 0.1s-0.1 0.1-0.2 0.1-0.2 0.1-0.4 0.1-0.4 0.1-0.6 0.1-0.5 0.1-0.7 0.1c-0.4 0-0.8-0.1-1.2-0.2-0.3-0.1-0.6-0.3-0.8-0.5s-0.4-0.5-0.5-0.9-0.2-0.8-0.2-1.3 0.1-0.9 0.2-1.2 0.3-0.7 0.5-0.9c0.2-0.3 0.5-0.5 0.8-0.6s0.7-0.2 1.1-0.2 0.8 0.1 1.1 0.2 0.5 0.3 0.7 0.5 0.3 0.5 0.4 0.8 0.1 0.6 0.1 1v0.2zm-1-0.3c0-0.5-0.1-0.9-0.3-1.2s-0.6-0.4-1.1-0.4c-0.2 0-0.5 0-0.6 0.1-0.2 0.1-0.3 0.2-0.5 0.4-0.1 0.2-0.2 0.3-0.3 0.5s-0.1 0.4-0.1 0.6h2.9z"/>
   <path d="m501 330.9c0 0.4-0.1 0.8-0.2 1.2s-0.3 0.7-0.5 1-0.5 0.5-0.9 0.6c-0.3 0.1-0.7 0.2-1.2 0.2-0.4 0-0.8-0.1-1.2-0.2-0.3-0.1-0.6-0.3-0.8-0.6s-0.4-0.6-0.5-0.9-0.2-0.8-0.2-1.2 0.1-0.8 0.2-1.2 0.3-0.7 0.5-1 0.5-0.5 0.9-0.6c0.3-0.1 0.7-0.2 1.2-0.2 0.4 0 0.8 0.1 1.2 0.2 0.3 0.1 0.6 0.3 0.8 0.6s0.4 0.6 0.5 0.9 0.2 0.8 0.2 1.2zm-1.1 0.1c0-0.3 0-0.6-0.1-0.8-0.1-0.3-0.1-0.5-0.3-0.7-0.1-0.2-0.3-0.3-0.5-0.5-0.2-0.1-0.5-0.2-0.8-0.2s-0.5 0.1-0.8 0.2c-0.2 0.1-0.4 0.3-0.5 0.4-0.1 0.2-0.2 0.4-0.3 0.7s-0.1 0.5-0.1 0.8 0 0.6 0.1 0.8c0.1 0.3 0.1 0.5 0.3 0.7 0.1 0.2 0.3 0.3 0.5 0.5 0.2 0.1 0.5 0.2 0.8 0.2s0.5-0.1 0.8-0.2c0.2-0.1 0.4-0.2 0.5-0.4s0.2-0.4 0.3-0.7c0.1-0.2 0.1-0.5 0.1-0.8z"/>
   <path d="m509.4 331.6c0 0.4-0.1 0.7-0.2 1s-0.3 0.5-0.6 0.7-0.5 0.3-0.8 0.4-0.7 0.1-1 0.1-0.5 0-0.7-0.1c-0.2 0-0.4-0.1-0.6-0.2s-0.3-0.1-0.4-0.2-0.2-0.1-0.2-0.2c0 0-0.1-0.1-0.1-0.2v-0.3-0.2-0.1s0-0.1 0.1-0.1h0.1c0.1 0 0.1 0 0.2 0.1s0.2 0.1 0.4 0.2 0.4 0.2 0.6 0.2c0.2 0.1 0.5 0.1 0.8 0.1 0.2 0 0.4 0 0.6-0.1s0.3-0.1 0.5-0.3c0.1-0.1 0.2-0.2 0.3-0.4s0.1-0.3 0.1-0.5 0-0.4-0.1-0.6-0.2-0.3-0.4-0.4-0.3-0.2-0.6-0.3l-0.6-0.3-0.6-0.3c-0.2-0.1-0.4-0.3-0.6-0.4-0.2-0.2-0.3-0.4-0.4-0.6s-0.2-0.5-0.2-0.8 0.1-0.6 0.2-0.9 0.3-0.5 0.5-0.6c0.2-0.2 0.5-0.3 0.7-0.4 0.3-0.1 0.6-0.1 0.9-0.1h0.5c0.2 0 0.3 0.1 0.5 0.1s0.3 0.1 0.4 0.2 0.2 0.1 0.2 0.1l0.1 0.1v0.1 0.1 0.2 0.2 0.1s0 0.1-0.1 0.1h-0.1s-0.1 0-0.2-0.1-0.2-0.1-0.3-0.2-0.3-0.1-0.5-0.2-0.4-0.1-0.6-0.1-0.4 0-0.6 0.1-0.3 0.1-0.4 0.2-0.2 0.2-0.2 0.3-0.1 0.3-0.1 0.4c0 0.2 0 0.4 0.1 0.6s0.2 0.3 0.4 0.4l0.6 0.3 0.6 0.3 0.6 0.3c0.2 0.1 0.4 0.3 0.6 0.4 0.2 0.2 0.3 0.4 0.4 0.6 0.2 0.7 0.2 0.9 0.2 1.2z"/>
   <path d="m512 333.1c0 0.3 0 0.5-0.1 0.6s-0.3 0.1-0.5 0.1-0.4 0-0.5-0.1-0.1-0.3-0.1-0.5c0-0.3 0-0.5 0.1-0.6s0.3-0.1 0.5-0.1 0.4 0 0.5 0.1 0.1 0.3 0.1 0.5z"/>
   <path d="m518.7 328.3c0 0.4-0.1 0.7-0.2 1s-0.3 0.6-0.5 0.8-0.5 0.4-0.9 0.5c-0.3 0.1-0.8 0.2-1.2 0.2h-0.9v2.8 0.1l-0.1 0.1h-0.2-0.2-0.2-0.2c-0.1 0-0.1 0-0.1-0.1v-0.1-7.1c0-0.2 0-0.3 0.1-0.3 0.1-0.1 0.2-0.1 0.3-0.1h1.7 0.5c0.2 0 0.3 0 0.5 0.1 0.2 0 0.4 0.1 0.6 0.3 0.2 0.1 0.4 0.3 0.6 0.5s0.3 0.4 0.3 0.6c0.1 0.2 0.1 0.5 0.1 0.7zm-1.1 0.1c0-0.3-0.1-0.6-0.2-0.8s-0.3-0.4-0.4-0.5-0.4-0.2-0.5-0.2h-0.5-1v3.1h0.9c0.3 0 0.6 0 0.8-0.1s0.4-0.2 0.5-0.3 0.2-0.3 0.3-0.5 0.1-0.4 0.1-0.7z"/>
   <path d="m519.9 333.1c0 0.3 0 0.5-0.1 0.6s-0.3 0.1-0.5 0.1-0.4 0-0.5-0.1-0.1-0.3-0.1-0.5c0-0.3 0-0.5 0.1-0.6s0.3-0.1 0.5-0.1 0.4 0 0.5 0.1c0 0.1 0.1 0.3 0.1 0.5z"/>
   <path d="m527.6 333.4c0 0.1 0 0.2 0.1 0.2v0.1s-0.1 0-0.2 0.1h-0.3-0.3-0.2s-0.1 0-0.1-0.1v-0.1l-0.7-1.9h-3.2l-0.6 1.9v0.1l-0.1 0.1h-0.2-0.3-0.3c-0.1 0-0.1 0-0.2-0.1v-0.1-0.2l2.6-7.2s0-0.1 0.1-0.1c0 0 0.1 0 0.1-0.1h0.2 0.3 0.3 0.2c0.1 0 0.1 0 0.1 0.1 0 0 0 0.1 0.1 0.1l2.6 7.2zm-3.3-6.3-1.3 3.9h2.7l-1.4-3.9z"/>
   <path d="m530.1 333.1c0 0.3 0 0.5-0.1 0.6s-0.3 0.1-0.5 0.1-0.4 0-0.5-0.1-0.1-0.3-0.1-0.5c0-0.3 0-0.5 0.1-0.6s0.3-0.1 0.5-0.1 0.4 0 0.5 0.1 0.1 0.3 0.1 0.5z"/>
   <path d="m533.3 332.9v0.3c0 0.1 0 0.2-0.1 0.3 0 0.1-0.1 0.2-0.1 0.3s-0.1 0.2-0.2 0.3l-0.8 1.2s0 0.1-0.1 0.1c0 0-0.1 0-0.1 0.1h-0.1-0.2-0.2-0.1v-0.1-0.1l0.8-1.6v-0.8-0.3c0-0.1 0.1-0.1 0.1-0.1s0.1-0.1 0.2-0.1h0.3 0.3c0.1 0 0.1 0 0.2 0.1l0.1 0.1c-0.1 0.2 0 0.2 0 0.3z"/>
   <path d="m543 333.6v0c0 0.1-0.1 0.1-0.1 0.1h-0.2-0.3-0.3-0.2s-0.1 0-0.1-0.1c0 0 0-0.1-0.1-0.1l-0.7-1.8-0.3-0.6c-0.1-0.2-0.2-0.3-0.3-0.4s-0.3-0.2-0.4-0.3-0.4-0.1-0.6-0.1h-0.7v3.3 0.1l-0.1 0.1h-0.2-0.2-0.2-0.2c-0.1 0-0.1 0-0.1-0.1v-0.1-7.1c0-0.2 0-0.3 0.1-0.3 0.1-0.1 0.2-0.1 0.3-0.1h1.6 0.5 0.3c0.3 0.1 0.6 0.1 0.8 0.2s0.4 0.3 0.6 0.4c0.2 0.2 0.3 0.4 0.3 0.6 0.1 0.2 0.1 0.5 0.1 0.7 0 0.3 0 0.5-0.1 0.7s-0.2 0.4-0.3 0.5c-0.1 0.2-0.3 0.3-0.5 0.4l-0.6 0.3c0.1 0.1 0.2 0.1 0.3 0.2l0.3 0.3c0.1 0.1 0.2 0.3 0.3 0.4 0.1 0.2 0.2 0.3 0.2 0.5l0.7 1.7c0.1 0.1 0.1 0.2 0.1 0.3s0.3 0.3 0.3 0.3zm-1.5-5.4c0-0.3-0.1-0.6-0.2-0.8s-0.4-0.4-0.7-0.5c-0.1 0-0.2 0-0.3-0.1s-0.3 0-0.5 0h-0.9v2.6h1c0.3 0 0.5 0 0.7-0.1s0.4-0.2 0.5-0.3 0.2-0.3 0.3-0.4c0 0 0.1-0.2 0.1-0.4z"/>
   <path d="m549.1 330.9c0 0.4-0.1 0.8-0.2 1.2s-0.3 0.7-0.5 1-0.5 0.5-0.9 0.6c-0.3 0.1-0.7 0.2-1.2 0.2-0.4 0-0.8-0.1-1.2-0.2-0.3-0.1-0.6-0.3-0.8-0.6s-0.4-0.6-0.5-0.9-0.2-0.8-0.2-1.2 0.1-0.8 0.2-1.2 0.3-0.7 0.5-1 0.5-0.5 0.9-0.6c0.3-0.1 0.7-0.2 1.2-0.2 0.4 0 0.8 0.1 1.2 0.2 0.3 0.1 0.6 0.3 0.8 0.6s0.4 0.6 0.5 0.9 0.2 0.8 0.2 1.2zm-1 0.1c0-0.3 0-0.6-0.1-0.8-0.1-0.3-0.1-0.5-0.3-0.7-0.1-0.2-0.3-0.3-0.5-0.5-0.2-0.1-0.5-0.2-0.8-0.2s-0.5 0.1-0.8 0.2c-0.2 0.1-0.4 0.3-0.5 0.4-0.1 0.2-0.2 0.4-0.3 0.7s-0.1 0.5-0.1 0.8 0 0.6 0.1 0.8c0.1 0.3 0.1 0.5 0.3 0.7 0.1 0.2 0.3 0.3 0.5 0.5 0.2 0.1 0.5 0.2 0.8 0.2s0.5-0.1 0.8-0.2c0.2-0.1 0.4-0.2 0.5-0.4s0.2-0.4 0.3-0.7c0.1-0.2 0.1-0.5 0.1-0.8z"/>
   <path d="m558.5 333.6v0c0 0.1-0.1 0.1-0.1 0.1h-0.1-0.2-0.2-0.2c-0.1 0-0.1 0-0.1-0.1v-0.1-3.3c0-0.2 0-0.4-0.1-0.6 0-0.2-0.1-0.3-0.2-0.5l-0.3-0.3c-0.1-0.1-0.3-0.1-0.5-0.1s-0.5 0.1-0.7 0.3-0.5 0.4-0.8 0.8v3.7 0.1l-0.1 0.1h-0.2-0.2-0.2-0.2s-0.1 0-0.1-0.1v-0.1-3.3c0-0.2 0-0.4-0.1-0.6 0-0.2-0.1-0.3-0.2-0.5l-0.3-0.3c-0.1-0.1-0.3-0.1-0.5-0.1s-0.5 0.1-0.7 0.3-0.5 0.4-0.8 0.8v3.7 0.1l-0.1 0.1h-0.1-0.2-0.2-0.2c-0.1 0-0.1 0-0.1-0.1v-0.1-5.4-0.1l0.1-0.1h0.1 0.2 0.2 0.1s0.1 0 0.1 0.1v0.1 0.7c0.3-0.3 0.6-0.6 0.9-0.7s0.6-0.2 0.9-0.2c0.2 0 0.4 0 0.6 0.1s0.3 0.1 0.5 0.2c0.1 0.1 0.3 0.2 0.3 0.3 0.1 0.1 0.2 0.3 0.2 0.4 0.2-0.2 0.3-0.4 0.5-0.5s0.3-0.2 0.5-0.3c0.1-0.1 0.3-0.1 0.4-0.2 0.1 0 0.3-0.1 0.4-0.1 0.3 0 0.6 0.1 0.9 0.2 0.2 0.1 0.4 0.3 0.6 0.5 0.1 0.2 0.2 0.4 0.3 0.7s0.1 0.6 0.1 0.9v3.5z"/>
   <path d="m564.9 330.7c0 0.2 0 0.3-0.1 0.3-0.1 0.1-0.2 0.1-0.3 0.1h-3.5c0 0.3 0 0.6 0.1 0.8l0.3 0.6c0.1 0.2 0.3 0.3 0.5 0.4s0.5 0.1 0.8 0.1 0.5 0 0.7-0.1c0.2 0 0.4-0.1 0.5-0.1s0.3-0.1 0.4-0.1 0.2-0.1 0.2-0.1h0.1l0.1 0.1v0.1 0.2 0.1 0.1 0.1l-0.1 0.1s-0.1 0.1-0.2 0.1-0.2 0.1-0.4 0.1-0.4 0.1-0.6 0.1-0.5 0.1-0.7 0.1c-0.4 0-0.8-0.1-1.2-0.2-0.3-0.1-0.6-0.3-0.8-0.5s-0.4-0.5-0.5-0.9-0.2-0.8-0.2-1.3 0.1-0.9 0.2-1.2 0.3-0.7 0.5-0.9c0.2-0.3 0.5-0.5 0.8-0.6s0.7-0.2 1.1-0.2 0.8 0.1 1.1 0.2 0.5 0.3 0.7 0.5 0.3 0.5 0.4 0.8 0.1 0.6 0.1 1v0.2zm-1-0.3c0-0.5-0.1-0.9-0.3-1.2s-0.6-0.4-1.1-0.4c-0.2 0-0.5 0-0.6 0.1-0.2 0.1-0.3 0.2-0.5 0.4-0.1 0.2-0.2 0.3-0.3 0.5s-0.1 0.4-0.1 0.6h2.9z"/>
   <path d="m570.3 333.6v0c0 0.1-0.1 0.1-0.1 0.1h-0.2-0.2-0.2-0.2c-0.1 0-0.1 0-0.1-0.1v-0.1-7.4-0.1l0.1-0.1c0.1-0.1 0.1 0 0.2 0h0.2 0.2 0.2s0.1 0 0.1 0.1v0.1 7.5z"/>
   <path d="m575 333.3v0.3c0 0.1 0 0.1-0.1 0.1l-0.1 0.1c-0.1 0-0.1 0-0.2 0.1h-0.3-0.3c-0.3 0-0.5 0-0.7-0.1s-0.4-0.2-0.5-0.3-0.2-0.3-0.3-0.6-0.1-0.5-0.1-0.8v-3.1h-0.8c-0.1 0-0.1 0-0.1-0.1s-0.1-0.2-0.1-0.3v-0.2-0.1s0-0.1 0.1-0.1h0.1 0.7v-1.3-0.1l0.1-0.1h0.2 0.2 0.2 0.1s0.1 0 0.1 0.1v0.1 1.3h1.4 0.1l0.1 0.1v0.1 0.2c0 0.1 0 0.2-0.1 0.3 0 0.1-0.1 0.1-0.1 0.1h-1.4v3c0 0.4 0.1 0.6 0.2 0.8s0.3 0.3 0.6 0.3h0.2c0.1 0 0.1 0 0.2-0.1 0.1 0 0.1 0 0.1-0.1h0.1 0.1v0.1 0.1s0.3 0.1 0.3 0.2z"/>
   <path d="m580.2 333.7v0.1s-0.1 0-0.1 0.1-0.1 0-0.2 0h-0.2s-0.1 0-0.1-0.1v-0.1-0.5c-0.2 0.3-0.5 0.4-0.8 0.6-0.3 0.1-0.6 0.2-0.9 0.2s-0.5 0-0.8-0.1l-0.6-0.3c-0.2-0.1-0.3-0.3-0.4-0.5s-0.1-0.4-0.1-0.7 0.1-0.6 0.2-0.8 0.3-0.4 0.5-0.6 0.5-0.3 0.8-0.3c0.3-0.1 0.7-0.1 1.1-0.1h0.7v-0.4c0-0.2 0-0.4-0.1-0.5 0-0.2-0.1-0.3-0.2-0.4s-0.2-0.2-0.4-0.2c-0.2-0.1-0.3-0.1-0.6-0.1-0.2 0-0.5 0-0.7 0.1s-0.4 0.1-0.5 0.2-0.3 0.1-0.4 0.2-0.2 0.1-0.2 0.1h-0.1l-0.1-0.1v-0.1-0.2-0.2s0-0.1 0.1-0.2 0.1-0.1 0.3-0.2c0.1-0.1 0.3-0.1 0.5-0.2s0.4-0.1 0.6-0.1 0.4-0.1 0.6-0.1c0.4 0 0.7 0 1 0.1s0.5 0.2 0.7 0.4 0.3 0.4 0.4 0.6 0.1 0.5 0.1 0.9v3.5zm-1-2.5h-0.8c-0.3 0-0.5 0-0.7 0.1-0.2 0-0.4 0.1-0.5 0.2l-0.3 0.3c-0.1 0.1-0.1 0.3-0.1 0.4 0 0.3 0.1 0.5 0.3 0.7s0.4 0.2 0.7 0.2 0.5-0.1 0.7-0.2 0.5-0.3 0.7-0.6v-1.1z"/>
   <path d="m583 333.6v0c0 0.1-0.1 0.1-0.1 0.1h-0.1-0.2-0.2-0.2c-0.1 0-0.1 0-0.1-0.1v-0.1-8-0.1l0.1-0.1h0.2 0.2 0.2 0.1s0.1 0 0.1 0.1v0.1 8.1z"/>
   <path d="m587.2 333.8-0.7 2c0 0.1-0.1 0.1-0.2 0.1h-0.4-0.3c-0.1 0-0.1 0-0.1-0.1l-0.1-0.1v-0.1l0.7-1.9s-0.1 0-0.1-0.1l-0.1-0.1-1.9-5.1v-0.2-0.1s0.1 0 0.2-0.1 0.2 0 0.3 0h0.3 0.2c0.1 0 0.1 0 0.1 0.1 0 0 0 0.1 0.1 0.1l1.5 4.3 1.5-4.3c0-0.1 0.1-0.1 0.1-0.1h0.2 0.3 0.3c0.1 0 0.1 0 0.2 0.1l0.1 0.1v0.2l-2.2 5.3z"/>
  </g>
  <g fill="#fff" transform="translate(.0000035073 708.36)">
   <path d="m227.14 211.1h2.8968l3.6668 9.778 3.686-9.778h2.8968v14.369h-1.8959v-12.617l-3.7052 9.855h-1.9537l-3.7052-9.855v12.617h-1.8863v-14.369"/>
   <path d="m248.26 215.93c-0.94957 0.00001-1.7002 0.37214-2.252 1.1164-0.55178 0.73785-0.82767 1.7516-0.82766 3.0412-0.00001 1.2896 0.27267 2.3066 0.81804 3.0508 0.55177 0.73784 1.3056 1.1068 2.2616 1.1068 0.94315 0 1.6906-0.37213 2.2424-1.1164 0.55177-0.74425 0.82766-1.758 0.82767-3.0412-0.00001-1.2768-0.2759-2.2873-0.82767-3.0316-0.55178-0.75067-1.2992-1.126-2.2424-1.126m0-1.5013c1.5398 0.00001 2.7493 0.50046 3.6283 1.5013 0.87898 1.0009 1.3185 2.3868 1.3185 4.1576-0.00001 1.7644-0.43951 3.1503-1.3185 4.1576-0.879 1.0009-2.0884 1.5014-3.6283 1.5014-1.5463 0-2.7589-0.50045-3.6379-1.5014-0.87258-1.0073-1.3089-2.3932-1.3089-4.1576 0-1.7708 0.43628-3.1567 1.3089-4.1576 0.87899-1.0009 2.0916-1.5013 3.6379-1.5013"/>
   <path d="m262.38 216.35c-0.19891-0.11548-0.41705-0.19889-0.65444-0.25023-0.23098-0.0577-0.48762-0.0866-0.76992-0.0866-1.0009 0.00001-1.7708 0.32722-2.3098 0.98165-0.53253 0.64802-0.79879 1.5816-0.79879 2.8006v5.6782h-1.7804v-10.779h1.7804v1.6746c0.37213-0.65443 0.85653-1.1388 1.4532-1.4532 0.59668-0.32079 1.3217-0.48119 2.175-0.4812 0.12189 0.00001 0.25663 0.01 0.40421 0.0289 0.14756 0.0128 0.31117 0.0353 0.49082 0.0674l0.01 1.8189"/>
   <path d="m273.05 219.64v0.86617h-8.1419c0.077 1.219 0.44271 2.1494 1.0971 2.791 0.66085 0.63519 1.5783 0.95278 2.7525 0.95278 0.68009 0 1.3377-0.0834 1.9729-0.25022 0.64159-0.16682 1.2768-0.41704 1.9056-0.75068v1.6746c-0.63519 0.26947-1.2864 0.47479-1.9537 0.61594-0.66728 0.14115-1.3442 0.21173-2.0307 0.21173-1.7195 0-3.0829-0.50045-4.0902-1.5014-1.0009-1.0009-1.5014-2.3547-1.5014-4.0613 0-1.7644 0.47478-3.1631 1.4244-4.1961 0.95598-1.0394 2.2424-1.5591 3.8592-1.5591 1.45 0.00001 2.5953 0.46838 3.4358 1.4051 0.8469 0.93034 1.2704 2.1975 1.2704 3.8015m-1.7708-0.51969c-0.0128-0.96881-0.28552-1.7419-0.81804-2.3194-0.52613-0.57744-1.2255-0.86616-2.098-0.86617-0.98807 0.00001-1.7804 0.27911-2.3771 0.83729-0.59027 0.55821-0.93032 1.3442-1.0201 2.3579l6.3134-0.01"/>
   <path d="m274.68 214.69h1.8767l3.3684 9.0466 3.3684-9.0466h1.8767l-4.0421 10.779h-2.406l-4.0421-10.779"/>
   <path d="m296.58 218.96v6.5058h-1.7708v-6.4481c-0.00001-1.0201-0.1989-1.7836-0.59669-2.2905-0.3978-0.50686-0.99449-0.76029-1.7901-0.7603-0.956 0.00001-1.7099 0.30477-2.2616 0.91428-0.55178 0.60953-0.82767 1.4404-0.82767 2.4926v6.092h-1.7804v-10.779h1.7804v1.6746c0.42346-0.64801 0.9207-1.1324 1.4917-1.4532 0.57743-0.32079 1.2415-0.48119 1.9922-0.4812 1.2383 0.00001 2.175 0.38497 2.8102 1.1549 0.63518 0.76351 0.95277 1.8895 0.95278 3.378"/>
   <path d="m305.03 220.05c-1.4308 0-2.422 0.16361-2.9738 0.49082-0.55178 0.32722-0.82767 0.88542-0.82766 1.6746-0.00001 0.62877 0.20531 1.1292 0.61593 1.5014 0.41704 0.36571 0.98165 0.54857 1.6938 0.54857 0.98165 0 1.7676-0.34646 2.3579-1.0394 0.59668-0.69934 0.89502-1.6264 0.89503-2.7813v-0.39458h-1.7612m3.532-0.73143v6.1498h-1.7708v-1.6361c-0.40421 0.65443-0.90787 1.1388-1.511 1.4532-0.60311 0.30797-1.341 0.46196-2.2135 0.46196-1.1036 0-1.9826-0.30797-2.637-0.92391-0.64802-0.62235-0.97202-1.4532-0.97202-2.4926 0-1.2126 0.4042-2.1269 1.2126-2.7428 0.81483-0.61593 2.0275-0.9239 3.6379-0.9239h2.483v-0.17324c-0.00001-0.81482-0.26948-1.4436-0.80842-1.8863-0.53253-0.44912-1.2832-0.67368-2.252-0.67369-0.61594 0.00001-1.2158 0.0738-1.7997 0.22136-0.58386 0.14757-1.1453 0.36893-1.6842 0.66405v-1.6361c0.64801-0.25021 1.2768-0.43628 1.8863-0.55819 0.60951-0.12831 1.203-0.19247 1.7804-0.19248 1.5591 0.00001 2.7236 0.40422 3.4935 1.2126 0.76991 0.80843 1.1549 2.0339 1.1549 3.6764"/>
   <path d="m318.57 211.1h9.0851v1.6361h-7.141v4.2538h6.8427v1.6361h-6.8427v5.2066h7.3142v1.6361h-9.2583v-14.369"/>
   <path d="m338.06 216.33v-5.8322h1.7708v14.975h-1.7708v-1.6168c-0.37214 0.6416-0.84372 1.1196-1.4147 1.434-0.56461 0.30797-1.2447 0.46196-2.0403 0.46196-1.3024 0-2.3643-0.5197-3.1856-1.5591-0.81484-1.0394-1.2222-2.406-1.2222-4.0998s0.40741-3.0604 1.2222-4.0998c0.82125-1.0394 1.8831-1.5591 3.1856-1.5591 0.79558 0.00001 1.4757 0.1572 2.0403 0.47157 0.57102 0.30798 1.0426 0.78277 1.4147 1.4244m-6.0343 3.763c0 1.3025 0.26627 2.3258 0.7988 3.0701 0.53894 0.73784 1.2768 1.1068 2.2135 1.1068 0.93673 0 1.6746-0.36892 2.2135-1.1068 0.53893-0.74426 0.80841-1.7676 0.80842-3.0701-0.00001-1.3024-0.26949-2.3226-0.80842-3.0604-0.53895-0.74425-1.2768-1.1164-2.2135-1.1164-0.93674 0.00001-1.6746 0.37213-2.2135 1.1164-0.53253 0.73785-0.7988 1.758-0.7988 3.0604"/>
   <path d="m343.48 214.69h1.7708v10.779h-1.7708v-10.779m0-4.1961h1.7708v2.2424h-1.7708v-2.2424"/>
   <path d="m350.7 211.63v3.0604h3.6475v1.3762h-3.6475v5.8514c0 0.87899 0.11869 1.4436 0.35609 1.6938 0.24381 0.25023 0.73463 0.37534 1.4725 0.37534h1.8189v1.4821h-1.8189c-1.3666 0-2.3098-0.25343-2.8295-0.7603-0.5197-0.51328-0.77954-1.4436-0.77954-2.791v-5.8514h-1.2992v-1.3762h1.2992v-3.0604h1.7804"/>
   <path d="m356.68 214.69h1.7708v10.779h-1.7708v-10.779m0-4.1961h1.7708v2.2424h-1.7708v-2.2424"/>
   <path d="m366.32 215.93c-0.94957 0.00001-1.7002 0.37214-2.252 1.1164-0.55178 0.73785-0.82767 1.7516-0.82767 3.0412s0.27268 2.3066 0.81805 3.0508c0.55177 0.73784 1.3056 1.1068 2.2616 1.1068 0.94315 0 1.6906-0.37213 2.2424-1.1164 0.55177-0.74425 0.82766-1.758 0.82766-3.0412 0-1.2768-0.27589-2.2873-0.82766-3.0316-0.55179-0.75067-1.2992-1.126-2.2424-1.126m0-1.5013c1.5398 0.00001 2.7492 0.50046 3.6283 1.5013 0.87898 1.0009 1.3185 2.3868 1.3185 4.1576-0.00001 1.7644-0.43951 3.1503-1.3185 4.1576-0.87901 1.0009-2.0884 1.5014-3.6283 1.5014-1.5463 0-2.7589-0.50045-3.6379-1.5014-0.87258-1.0073-1.3089-2.3932-1.3089-4.1576 0-1.7708 0.43629-3.1567 1.3089-4.1576 0.87899-1.0009 2.0916-1.5013 3.6379-1.5013"/>
   <path d="m383.16 218.96v6.5058h-1.7708v-6.4481c-0.00001-1.0201-0.19891-1.7836-0.59669-2.2905-0.3978-0.50686-0.99449-0.76029-1.7901-0.7603-0.95599 0.00001-1.7099 0.30477-2.2616 0.91428-0.55178 0.60953-0.82767 1.4404-0.82766 2.4926v6.092h-1.7804v-10.779h1.7804v1.6746c0.42345-0.64801 0.92069-1.1324 1.4917-1.4532 0.57744-0.32079 1.2415-0.48119 1.9922-0.4812 1.2383 0.00001 2.175 0.38497 2.8102 1.1549 0.63517 0.76351 0.95277 1.8895 0.95278 3.378"/>
  </g>
 </g>
</svg>
